{"glyphs":{"0":{"ha":870,"x_min":47,"x_max":823,"o":"m 267 1272 q 332 1163 269 1264 l 345 1166 l 380 1166 q 711 910 573 1166 q 798 997 731 917 q 823 991 805 997 l 823 983 q 722 854 722 893 l 722 851 q 741 539 722 734 q 768 497 768 518 q 728 267 768 439 q 627 98 699 212 l 627 90 q 654 -34 627 79 l 654 -39 q 614 -163 618 -163 l 611 -149 q 616 -73 611 -138 q 578 45 616 -58 l 578 51 q 429 12 465 12 l 408 12 q 275 51 322 12 q 177 155 208 85 q 131 189 143 189 l 131 169 q 101 71 131 114 q 93 90 93 81 l 93 98 q 131 258 93 111 q 93 357 93 342 q 74 548 74 490 q 131 882 90 679 q 93 921 131 892 l 47 1073 l 47 1076 q 66 1095 47 1080 q 153 969 98 1057 q 188 1087 188 1047 q 283 1152 283 1128 l 256 1247 l 256 1270 q 267 1272 262 1270 m 370 1053 q 421 803 370 993 q 448 781 428 781 l 459 781 q 614 857 614 807 l 614 859 q 508 1036 606 922 q 440 1073 466 1073 l 435 1073 q 370 1053 408 1073 m 237 876 q 302 812 239 847 q 329 941 329 911 l 329 949 q 313 1031 329 975 q 237 876 237 904 m 207 775 q 180 610 180 621 l 180 460 l 182 460 q 283 666 283 647 q 210 775 273 709 l 207 775 m 475 640 q 597 233 573 309 l 600 233 q 652 346 652 319 l 652 349 q 627 396 652 366 q 625 408 625 401 q 644 526 625 418 q 616 747 627 619 l 614 747 q 475 640 507 667 m 199 334 q 226 290 199 326 q 351 113 226 163 q 408 101 366 104 q 538 163 538 113 l 538 172 q 375 517 528 234 q 356 542 361 541 l 351 542 q 231 408 278 476 q 199 334 199 357 z "},"1":{"ha":682,"x_min":58,"x_max":625,"o":"m 524 1149 q 532 1109 532 1129 q 494 937 532 1053 q 511 913 511 916 q 625 987 600 982 l 625 985 q 503 867 625 978 q 451 616 451 814 q 437 440 437 508 q 462 39 455 39 q 475 10 475 29 q 413 -85 475 6 q 378 -186 399 -115 q 383 -208 383 -196 q 351 -234 383 -218 l 351 -112 q 370 -73 370 -89 q 342 76 364 -23 q 345 119 342 108 q 342 322 342 243 l 342 385 q 345 591 342 460 q 342 597 342 595 l 136 401 q 58 340 73 340 l 58 412 q 93 519 58 491 q 177 573 106 532 q 283 699 210 600 q 386 887 349 782 q 470 1003 413 930 q 505 1122 505 1042 q 524 1149 518 1149 z "},"2":{"ha":878,"x_min":55,"x_max":823,"o":"m 378 1151 l 399 1151 q 603 1022 505 1151 q 644 902 644 960 q 370 276 644 749 q 313 165 313 172 l 315 165 q 486 105 385 165 q 568 81 534 81 q 587 105 585 81 q 709 204 642 105 q 798 399 784 386 l 817 399 q 823 393 823 398 l 823 381 q 755 193 823 368 q 730 39 741 143 q 630 -23 665 -23 l 619 -23 q 356 69 564 -23 l 351 69 q 104 -134 286 69 q 77 -149 84 -149 l 55 -149 l 55 -111 q 188 177 102 26 q 538 902 538 783 q 454 1061 538 988 q 399 1076 420 1076 l 391 1076 q 237 881 339 1076 q 117 707 204 804 q 82 677 113 707 q 74 686 78 677 l 74 707 q 117 840 74 716 q 142 908 117 871 q 245 1088 193 1015 q 378 1151 301 1151 m 356 890 q 416 836 382 878 q 345 783 387 783 q 310 825 319 783 l 310 830 q 356 890 310 850 z "},"3":{"ha":817,"x_min":59,"x_max":758,"o":"m 758 1148 l 758 1118 q 735 1082 758 1105 q 668 942 684 942 q 439 640 600 855 q 694 421 587 640 q 743 210 743 315 q 537 -130 743 -3 q 414 -166 463 -166 l 368 -166 q 157 7 229 -166 q 113 288 113 123 l 113 373 q 123 385 113 378 q 211 282 159 385 q 221 239 221 255 q 216 170 221 207 q 244 24 226 62 q 321 -48 271 -22 q 385 -73 370 -73 q 591 55 492 -73 q 642 212 642 135 q 589 412 642 290 q 458 530 526 530 q 300 479 425 530 q 283 437 283 460 l 257 437 l 257 536 q 313 624 257 549 l 452 839 l 447 839 q 300 836 384 839 q 59 985 151 836 l 59 1021 q 296 936 237 947 l 442 936 q 704 1103 534 973 q 758 1148 743 1148 m 419 288 l 427 288 q 481 231 463 288 l 481 222 q 434 182 470 182 l 424 182 q 383 224 394 182 l 383 243 q 419 288 389 288 z "},"4":{"ha":822,"x_min":54,"x_max":768,"o":"m 445 1149 l 445 1144 q 453 1045 453 1062 l 437 936 l 437 926 q 453 919 437 921 l 453 916 q 293 541 374 815 q 274 490 289 541 l 279 488 l 290 488 q 369 512 298 488 l 372 512 q 502 495 389 512 q 597 512 597 505 l 605 522 q 586 931 600 711 q 697 1093 600 1006 q 743 1115 730 1115 l 768 1115 l 768 1112 q 692 924 692 975 q 700 916 692 916 l 700 553 q 738 488 700 524 l 738 469 q 703 427 738 454 q 700 418 700 423 l 700 231 q 746 64 700 223 q 749 40 749 52 q 722 -98 749 33 l 722 -115 q 738 -156 722 -142 l 703 -156 q 670 -33 696 -156 q 613 79 613 50 q 597 313 597 188 l 597 422 q 534 437 595 435 q 244 406 287 426 q 54 367 91 367 l 171 515 q 244 723 203 576 q 334 945 320 930 q 396 1072 368 963 q 442 1146 420 1146 q 445 1149 442 1149 z "},"5":{"ha":812,"x_min":46,"x_max":765,"o":"m 62 1153 q 746 1114 494 1114 l 765 1114 l 765 1112 q 708 1025 765 1080 q 689 962 689 987 l 689 871 q 618 987 663 873 q 543 1031 594 1031 q 399 1045 494 1045 l 285 1045 q 239 1006 254 1045 l 236 979 q 244 711 236 956 l 250 708 l 258 708 q 385 747 275 708 q 434 755 412 755 l 456 755 q 697 539 633 755 q 708 451 708 496 l 708 415 q 594 102 708 251 q 377 0 498 0 l 363 0 q 117 105 253 0 q 87 138 117 110 q 49 313 53 215 q 46 385 46 313 q 57 387 51 387 q 195 265 131 286 l 195 260 q 171 216 195 253 q 168 199 168 212 q 247 119 168 161 q 380 77 345 77 q 613 334 519 77 l 613 509 q 567 622 613 557 q 453 666 524 666 l 434 666 q 296 591 347 666 q 176 473 214 498 l 176 475 q 152 932 168 932 q 98 1117 152 968 q 62 1153 94 1117 m 385 418 q 434 370 434 406 l 434 368 q 374 318 434 340 q 328 365 342 318 l 328 370 q 385 418 328 403 z "},"6":{"ha":812,"x_min":103,"x_max":708,"o":"m 654 1220 q 646 1105 646 1123 q 692 871 646 1093 l 692 843 q 681 830 692 838 q 632 910 653 847 q 608 942 632 931 q 315 590 541 937 q 285 536 285 545 q 328 516 309 516 q 458 539 429 539 l 461 539 q 692 325 616 539 q 708 225 708 269 l 708 180 q 692 50 705 50 q 537 -104 585 -98 q 426 -142 471 -142 l 385 -142 q 149 -8 260 -142 q 103 126 103 87 l 103 337 q 144 471 122 354 q 334 791 177 573 q 562 1073 415 897 q 605 1188 577 1100 q 654 1220 630 1220 m 198 197 q 309 -14 198 44 q 380 -31 340 -31 l 396 -31 q 602 126 550 -31 q 613 200 613 156 l 613 216 q 578 296 613 236 q 458 437 552 437 l 437 437 q 209 286 262 437 q 198 197 198 244 m 388 270 l 404 270 q 445 235 421 270 l 445 184 q 393 168 427 168 q 358 225 358 168 l 358 232 q 388 270 366 270 z "},"7":{"ha":833,"x_min":42,"x_max":791,"o":"m 791 1190 l 791 1187 q 658 989 789 1154 q 560 829 617 935 q 425 579 442 652 l 425 576 q 745 631 637 604 q 595 474 642 499 q 530 452 570 452 l 514 452 q 392 455 475 452 q 267 156 335 359 q 232 -33 232 29 q 278 -150 232 -58 l 278 -190 l 251 -190 q 199 -116 211 -129 q 153 -88 172 -88 q 126 -106 139 -92 l 121 -48 q 126 73 126 43 q 178 174 142 73 q 275 455 245 340 l 273 455 q 232 452 249 455 q 69 560 111 452 q 66 576 69 570 q 83 588 69 588 q 305 554 148 582 q 433 817 326 589 q 533 965 471 888 l 533 974 l 528 996 l 145 996 q 102 922 102 956 q 69 832 90 832 l 61 832 q 50 857 50 836 q 69 943 69 934 q 42 1085 42 1067 l 45 1085 q 232 1095 119 1095 l 400 1095 q 791 1190 628 1095 z "},"8":{"ha":747,"x_min":60,"x_max":686,"o":"m 393 1145 q 600 1033 490 1130 q 648 887 648 977 l 648 838 q 564 675 648 750 q 469 566 532 640 q 643 382 608 441 q 686 248 651 347 l 686 220 q 567 44 686 114 q 374 0 477 0 l 350 0 q 106 96 222 0 q 60 209 60 175 q 141 406 60 285 q 304 568 206 498 q 174 745 206 640 q 155 904 155 798 l 155 909 q 184 1052 155 931 q 393 1145 307 1145 m 252 892 l 252 882 q 298 745 252 833 q 391 646 345 665 q 486 745 446 686 q 543 887 543 828 l 543 901 q 458 1025 543 977 q 401 1038 429 1038 q 255 926 300 1038 l 252 892 m 358 923 l 377 923 q 420 879 404 923 l 420 857 q 401 827 420 840 l 382 827 q 345 857 363 827 l 345 915 q 358 923 349 915 m 176 217 l 176 198 q 266 104 176 136 q 331 96 302 96 q 556 184 497 96 q 572 250 572 215 l 572 258 q 553 305 572 283 q 429 465 542 342 q 391 489 404 489 q 212 305 320 476 q 176 217 176 241 m 336 319 l 393 319 q 401 294 401 299 l 401 275 q 358 231 401 247 l 347 231 q 317 264 325 231 l 317 291 q 336 319 317 307 z "},"9":{"ha":736,"x_min":65,"x_max":670,"o":"m 119 -197 q 127 -83 127 -101 q 81 147 127 -71 l 81 176 q 92 189 81 181 q 141 110 121 172 q 165 78 141 89 q 458 425 233 83 q 488 479 488 470 q 445 498 465 498 q 315 476 344 476 l 312 476 q 81 687 157 476 q 65 785 65 741 l 65 829 q 81 959 68 959 q 236 1110 188 1103 q 347 1148 302 1148 l 388 1148 q 624 1015 513 1148 q 670 883 670 922 l 670 675 q 629 542 651 658 q 439 227 596 442 q 212 -52 358 122 q 168 -165 196 -78 q 119 -197 143 -197 m 575 814 q 464 1022 575 964 q 393 1038 433 1038 l 377 1038 q 171 883 223 1038 q 160 810 160 854 l 160 795 q 195 715 160 775 q 315 576 221 576 l 336 576 q 564 725 511 576 q 575 814 575 766 m 385 741 l 369 741 q 328 776 352 741 l 328 826 q 380 842 346 842 q 415 785 415 842 l 415 779 q 385 741 408 741 z "}," ":{"ha":674,"x_min":0,"x_max":0,"o":""},"!":{"ha":340,"x_min":50,"x_max":291,"o":"m 60 1302 q 196 1126 98 1237 q 239 1063 239 1076 q 201 822 239 1036 q 210 798 210 807 q 201 629 210 738 q 269 388 234 494 q 256 372 267 388 q 169 380 208 380 l 134 380 q 115 1099 115 703 l 52 1278 q 50 1294 50 1282 l 60 1302 m 185 201 l 201 201 q 291 127 269 201 l 291 117 q 193 0 269 0 q 109 90 121 0 l 109 103 q 185 201 109 185 z "},"\"":{"ha":547,"x_min":62,"x_max":484,"o":"m 252 1305 l 254 1305 l 254 1299 q 224 1245 254 1289 q 219 1213 219 1226 l 227 1156 q 195 914 195 961 l 195 901 q 205 825 195 863 q 97 735 149 809 q 81 711 90 717 l 75 713 l 62 711 l 62 713 q 127 1191 86 868 q 203 1278 181 1260 q 252 1305 209 1278 m 481 1313 l 484 1313 l 484 1308 q 454 1253 484 1297 q 449 1221 449 1234 l 457 1164 q 425 922 425 969 l 425 909 q 435 833 425 871 q 327 743 379 817 q 311 719 319 725 l 305 722 l 292 719 l 292 722 q 357 1199 316 876 q 433 1286 411 1268 q 481 1313 439 1286 z "},"#":{"ha":1287,"x_min":40,"x_max":1247,"o":"m 751 1303 l 781 1303 q 884 1133 781 1258 q 895 1105 895 1109 l 895 1095 q 867 1021 867 1031 l 867 840 q 965 832 921 832 q 1236 928 1136 832 q 1247 918 1247 926 q 1209 770 1247 791 q 1158 760 1183 760 l 889 760 q 867 740 886 760 l 867 654 q 1155 646 903 654 q 1182 567 1176 646 l 1198 457 l 1196 457 q 1122 536 1164 470 q 1068 572 1099 572 l 935 572 q 865 580 884 572 q 838 488 838 550 l 838 248 q 867 174 867 183 l 867 169 q 840 128 867 165 q 829 41 829 81 l 829 1 l 802 -7 l 797 -7 q 745 146 780 93 q 732 172 732 159 q 751 263 751 250 l 751 572 l 583 572 q 564 541 564 556 l 591 210 q 523 16 589 167 l 504 11 q 474 488 474 202 l 474 516 q 477 572 474 534 l 238 572 q 189 473 197 572 q 162 447 170 447 l 165 465 q 100 671 165 530 q 97 679 97 676 l 100 679 q 303 643 227 643 l 458 643 l 458 755 q 452 760 458 760 l 422 760 q 54 939 135 760 q 40 982 45 952 l 43 982 q 151 896 117 917 q 330 840 261 840 l 433 840 l 439 842 q 436 844 439 844 q 433 918 433 910 q 458 1135 433 1102 q 471 1186 467 1179 q 466 1206 466 1196 l 466 1278 l 493 1278 q 553 1109 503 1278 l 553 1099 l 526 947 l 526 926 q 534 840 526 895 l 539 840 q 699 832 566 840 l 729 832 q 775 863 775 832 q 781 893 779 863 q 751 1303 767 1204 m 564 750 l 564 692 q 631 654 564 654 q 756 661 734 661 l 762 661 l 762 664 q 770 745 770 719 l 770 750 q 721 743 758 745 q 564 750 646 745 z "},"$":{"ha":610,"x_min":14,"x_max":595,"o":"m 207 1310 q 304 1177 227 1272 q 340 1091 340 1128 q 321 994 340 1078 l 323 994 q 437 971 421 971 q 551 1010 444 971 l 595 1010 q 543 971 595 1006 l 538 962 l 568 852 q 557 734 557 747 l 554 734 q 462 836 523 751 q 340 915 399 915 l 329 718 q 530 542 530 650 q 437 420 505 468 q 326 363 330 385 q 359 203 334 303 q 280 5 359 173 q 264 0 271 0 l 261 0 q 234 144 234 119 q 253 269 234 161 q 231 355 253 294 q 66 422 90 392 q 25 558 25 467 q 14 619 14 606 l 14 630 l 17 630 q 153 475 153 547 q 226 427 153 444 q 242 445 242 441 q 253 642 242 557 q 147 689 253 663 q 44 809 44 724 l 44 818 q 174 956 44 903 q 234 991 234 985 q 242 1042 242 1008 l 242 1059 q 185 1303 242 1162 q 207 1310 199 1310 m 139 804 q 188 752 139 768 q 242 743 206 748 l 242 777 q 234 890 242 841 q 158 859 201 890 q 139 804 139 832 m 340 637 l 340 458 q 424 549 424 486 q 345 637 424 637 l 340 637 z "},"%":{"ha":886,"x_min":36,"x_max":850,"o":"m 840 1246 q 850 1239 850 1243 l 850 1227 q 818 1150 850 1211 q 481 574 743 948 q 254 215 329 354 q 199 39 199 104 q 209 15 202 24 l 209 3 l 197 0 l 194 0 q 36 24 163 0 q 399 606 239 315 q 572 873 441 680 q 617 1002 617 959 q 818 1219 669 1060 l 840 1246 m 323 1223 q 432 1123 387 1223 l 435 1107 l 435 1093 q 332 979 435 1013 q 310 977 321 977 l 286 977 q 191 1077 222 977 q 188 1104 188 1091 l 188 1118 q 269 1215 188 1188 q 323 1223 289 1223 m 275 1088 q 296 1063 278 1088 l 304 1063 q 340 1072 311 1063 l 340 1107 q 321 1134 323 1134 q 275 1088 317 1134 m 570 418 q 679 317 633 418 l 682 301 l 682 288 q 578 174 682 208 q 557 171 568 171 l 532 171 q 437 271 469 171 q 435 298 435 286 l 435 312 q 516 410 435 382 q 570 418 536 418 m 522 282 q 543 258 525 282 l 551 258 q 587 266 557 258 l 587 301 q 568 328 570 328 q 522 282 564 328 z "},"&":{"ha":886,"x_min":58,"x_max":828,"o":"m 372 1303 l 416 1303 q 543 1141 543 1303 q 378 818 543 1018 q 372 799 372 801 q 489 532 372 772 l 494 530 q 633 677 602 640 q 741 878 741 798 l 741 899 q 771 871 771 894 q 752 749 752 760 q 795 705 752 743 q 798 692 798 699 l 798 686 q 698 573 798 631 q 565 414 565 463 q 798 273 714 273 l 828 273 l 828 235 q 798 132 798 152 q 817 0 798 114 l 814 0 q 709 125 760 18 q 616 232 672 208 q 508 307 568 239 q 492 317 505 317 q 367 201 462 317 q 264 163 317 163 q 71 376 139 163 q 58 464 58 418 l 58 479 q 248 855 58 581 l 199 1056 q 323 1294 199 1234 q 372 1303 353 1303 m 304 994 q 323 946 304 962 q 437 1150 437 1094 l 437 1194 l 402 1194 q 321 1112 345 1194 l 304 994 m 283 699 q 163 445 163 532 q 242 276 177 276 l 245 276 q 408 408 303 295 q 418 439 418 433 q 356 570 408 477 q 283 699 286 699 z "},"'":{"ha":275,"x_min":41,"x_max":233,"o":"m 231 1305 l 233 1305 l 233 1299 q 203 1245 233 1289 q 198 1213 198 1226 l 206 1156 q 174 914 174 961 l 174 901 q 184 825 174 863 q 76 735 128 809 q 60 711 68 717 l 54 713 l 41 711 l 41 713 q 106 1191 65 868 q 182 1278 160 1260 q 231 1305 188 1278 z "},"(":{"ha":610,"x_min":71,"x_max":538,"o":"m 443 1446 l 446 1446 q 451 1440 451 1445 l 451 1424 q 348 1242 435 1342 q 212 1104 245 1179 q 174 903 176 991 q 166 854 172 874 q 174 836 172 854 q 166 694 174 785 q 220 502 187 587 q 397 279 297 336 q 508 168 484 222 q 538 19 538 87 l 538 0 q 478 76 507 0 q 234 328 441 121 q 185 399 185 397 q 71 806 71 667 l 98 941 q 177 1202 145 1152 q 361 1373 248 1289 q 443 1446 396 1399 z "},")":{"ha":610,"x_min":71,"x_max":538,"o":"m 166 1446 q 248 1373 213 1399 q 432 1202 361 1289 q 511 941 464 1152 l 538 806 q 424 399 538 667 q 375 328 424 397 q 131 76 168 121 q 71 0 102 0 l 71 19 q 101 168 71 87 q 212 279 125 222 q 389 502 312 336 q 443 694 422 587 q 435 836 435 785 q 443 854 437 854 q 435 903 437 874 q 397 1104 433 991 q 261 1242 363 1179 q 158 1424 174 1342 l 158 1440 q 163 1446 158 1445 l 166 1446 z "},"*":{"ha":1019,"x_min":39,"x_max":980,"o":"m 418 1199 l 421 1199 q 489 1123 461 1171 q 535 952 513 1068 q 532 928 532 937 l 538 925 l 549 925 q 673 1036 575 937 q 812 1153 691 1057 q 820 1137 820 1150 q 720 933 820 995 q 627 860 720 930 q 592 827 592 830 q 638 819 617 819 l 646 819 q 928 884 842 819 q 980 903 972 903 l 980 876 q 852 765 889 774 q 758 743 824 743 q 717 746 751 743 q 679 743 700 743 q 774 659 744 674 l 785 659 q 806 686 804 659 l 809 686 q 877 556 836 667 l 904 515 l 904 477 l 901 477 q 570 713 682 640 q 562 689 562 703 q 592 618 562 673 l 592 613 q 562 429 562 464 q 543 410 557 429 q 467 662 467 573 q 475 722 470 696 l 473 722 q 342 616 418 713 q 253 540 286 581 q 218 412 234 522 q 210 401 212 401 q 191 453 191 417 q 239 678 204 545 q 313 724 272 678 q 193 754 224 735 q 60 857 142 789 q 50 863 54 863 l 50 868 q 58 882 58 868 l 58 890 q 39 914 58 901 l 77 914 q 261 822 163 839 q 277 819 263 822 q 408 827 384 827 q 239 920 296 920 q 177 1028 217 920 q 172 1058 172 1039 l 172 1074 l 174 1074 q 446 906 287 991 l 448 906 l 448 977 q 418 1031 418 1008 l 418 1199 z "},"+":{"ha":878,"x_min":41,"x_max":836,"o":"m 302 1194 l 313 1194 q 435 1013 392 1090 l 435 1010 q 429 928 429 951 l 429 904 q 478 806 429 806 q 516 804 501 804 q 709 823 690 823 q 766 798 756 823 q 836 682 784 742 l 836 652 l 833 652 q 766 701 827 652 q 597 736 683 734 q 465 728 507 728 l 462 728 q 448 709 448 722 l 448 703 q 497 606 448 678 q 454 549 497 591 q 402 416 422 511 l 361 416 q 370 562 370 477 q 361 736 370 639 l 315 730 q 215 736 237 736 q 174 717 183 717 q 41 912 107 806 l 41 915 l 44 915 q 258 804 152 823 q 361 839 361 824 q 315 1034 361 865 l 315 1040 q 323 1086 323 1070 q 296 1173 323 1093 l 296 1189 q 302 1194 297 1194 z "},",":{"ha":800,"x_min":304,"x_max":494,"o":"m 380 144 q 475 109 425 144 q 494 71 494 90 l 494 62 q 380 -278 494 17 l 372 -278 q 304 -245 338 -278 l 304 -227 q 364 144 304 125 l 380 144 z "},"-":{"ha":886,"x_min":29,"x_max":857,"o":"m 854 731 q 713 834 734 834 l 707 834 q 691 807 694 807 l 675 807 q 498 842 562 842 l 493 842 q 241 837 410 842 q 132 788 175 837 q 54 734 77 734 q 29 742 29 734 q 124 916 124 869 l 124 921 l 138 921 q 279 913 208 921 l 778 929 q 857 753 793 909 l 857 731 l 854 731 z "},".":{"ha":344,"x_min":77,"x_max":267,"o":"m 153 144 q 248 109 197 144 q 267 71 267 90 l 267 62 q 153 0 267 17 l 144 0 q 77 33 110 0 l 77 52 q 136 144 77 125 l 153 144 z "},"/":{"ha":809,"x_min":-42,"x_max":850,"o":"m 840 1367 q 850 1359 850 1363 l 850 1345 q 815 1261 850 1328 q 446 629 734 1040 q 197 236 279 389 q 137 43 137 114 q 148 16 140 26 l 148 3 l 134 0 l 132 0 q -42 27 98 0 q 357 665 181 345 q 547 958 402 745 q 595 1099 595 1052 q 815 1337 652 1163 l 840 1367 z "},":":{"ha":344,"x_min":77,"x_max":267,"o":"m 153 144 q 248 109 197 144 q 267 71 267 90 l 267 62 q 153 0 267 17 l 144 0 q 77 33 110 0 l 77 52 q 136 144 77 125 l 153 144 m 153 694 q 248 659 197 694 q 267 621 267 641 l 267 613 q 153 551 267 568 l 144 551 q 77 583 110 551 l 77 602 q 136 694 77 676 l 153 694 z "},";":{"ha":340,"x_min":75,"x_max":265,"o":"m 151 144 q 246 109 195 144 q 265 71 265 90 l 265 62 q 151 -278 265 17 l 143 -278 q 75 -245 109 -278 l 75 -227 q 135 144 75 125 l 151 144 m 151 694 q 246 659 195 694 q 265 621 265 641 l 265 613 q 151 551 265 568 l 143 551 q 75 583 109 551 l 75 602 q 135 694 75 676 l 151 694 z "},"<":{"ha":878,"x_min":45,"x_max":832,"o":"m 45 622 q 309 760 223 699 q 539 912 486 905 q 618 923 592 915 q 813 991 789 991 l 821 991 l 832 983 l 824 975 q 702 893 741 950 q 599 779 641 800 q 379 649 409 690 q 496 562 420 621 q 740 421 665 421 l 756 421 l 748 383 l 745 383 q 699 391 718 383 q 574 410 591 400 q 482 473 539 410 q 143 627 274 627 q 51 619 134 627 l 45 619 l 45 622 z "},"=":{"ha":1011,"x_min":73,"x_max":938,"o":"m 924 1035 l 938 1032 l 938 1016 q 843 861 938 976 q 808 837 829 837 l 230 837 q 92 962 191 845 q 73 1016 73 1002 l 75 1016 q 151 945 80 1016 q 319 913 201 913 q 553 921 446 921 l 688 921 q 924 1035 881 968 m 203 731 l 208 731 l 330 715 l 531 731 q 840 709 840 725 q 900 590 900 677 l 897 590 q 805 639 845 639 q 694 647 755 647 l 588 647 q 287 636 405 636 l 249 636 q 189 566 215 636 q 178 552 181 552 q 168 568 168 555 q 203 731 177 731 z "},">":{"ha":882,"x_min":47,"x_max":834,"o":"m 834 622 l 834 619 l 829 619 q 736 627 745 627 q 397 473 606 627 q 305 410 340 410 q 180 391 289 400 q 134 383 162 383 l 132 383 l 123 421 l 140 421 q 384 562 214 421 q 500 649 459 621 q 281 779 471 690 q 178 893 239 800 q 56 975 139 950 l 47 983 l 58 991 l 66 991 q 262 923 90 991 q 340 912 288 915 q 571 760 394 905 q 834 622 656 699 z "},"?":{"ha":801,"x_min":148,"x_max":652,"o":"m 373 1305 l 411 1305 q 623 1089 537 1305 q 652 922 652 980 q 438 554 652 669 q 327 528 377 528 l 311 528 q 300 335 300 468 l 300 319 q 224 245 288 245 q 205 374 205 295 l 205 525 q 167 709 205 626 l 167 712 q 186 741 167 725 l 189 741 q 340 631 309 631 l 349 631 q 536 795 459 631 q 566 931 566 876 q 492 1156 565 977 q 441 1202 473 1202 l 406 1202 q 275 1105 340 1202 q 281 1099 281 1104 l 281 1079 q 205 924 281 1066 q 186 876 186 878 q 148 989 148 900 l 148 1060 q 218 1221 148 1146 q 373 1305 275 1305 m 232 190 l 235 190 q 319 110 298 190 l 319 97 q 240 0 319 62 l 218 0 q 167 103 167 21 l 167 110 q 232 190 167 190 z "},"@":{"ha":1109,"x_min":108,"x_max":1000,"o":"m 211 1300 l 233 1300 l 230 1285 l 230 1255 q 268 1144 230 1206 q 564 1270 431 1270 l 574 1270 q 870 1123 766 1270 q 1000 909 1000 968 l 1000 895 q 984 859 1000 883 q 989 802 984 850 q 838 576 989 653 q 770 564 800 564 q 683 595 757 564 l 675 595 q 618 558 655 595 q 545 534 583 534 l 523 534 q 366 669 425 534 q 355 732 355 707 l 355 751 q 404 844 355 817 q 566 862 428 862 l 572 862 q 675 787 619 862 q 737 661 734 661 q 857 705 793 661 q 895 808 895 749 l 895 817 l 859 949 q 857 970 857 961 q 876 988 857 975 q 593 1183 734 1183 l 569 1183 q 322 1072 464 1183 q 268 964 268 1022 q 222 888 264 943 q 195 757 195 843 l 195 732 q 298 408 195 599 q 422 303 349 340 q 534 273 481 273 l 588 273 q 854 454 782 273 l 892 528 q 895 543 895 534 q 973 465 926 543 l 973 456 q 816 240 957 368 q 702 201 778 225 q 659 105 659 163 q 677 15 677 38 l 677 0 l 675 0 q 604 117 670 0 q 488 177 578 153 q 414 210 476 198 q 170 475 264 277 q 108 736 108 625 l 108 739 q 127 888 108 800 q 121 919 123 894 q 189 1117 121 958 q 211 1300 211 1203 m 460 718 l 460 709 q 496 631 465 631 l 501 631 q 602 684 585 638 l 602 694 q 539 763 602 763 l 512 763 q 460 718 460 763 z "},"A":{"ha":747,"x_min":18,"x_max":728,"o":"m 381 1160 l 392 1160 q 544 1062 461 1160 q 598 821 598 997 l 598 699 q 625 194 598 338 l 628 194 q 693 297 644 199 l 701 305 l 728 305 l 728 302 q 544 -53 709 203 q 479 -243 484 -173 q 465 -278 473 -278 q 452 -283 456 -283 l 452 -281 q 444 -115 444 -208 l 444 -99 q 487 -15 444 -92 q 528 178 522 131 q 511 517 511 448 l 511 541 q 221 571 288 566 q 151 479 159 571 q 132 210 151 387 q 151 137 151 148 q 88 -129 151 126 q 85 -153 85 -139 q 102 -283 102 -250 l 102 -292 l 99 -292 q 37 -159 37 -247 q 18 69 18 -36 l 18 72 q 45 189 18 90 l 45 357 l 91 764 q 110 812 91 812 q 221 1067 191 1022 q 381 1160 286 1160 m 180 666 l 183 666 l 492 639 l 492 642 q 500 880 492 675 q 419 1029 500 989 q 384 1035 395 1035 l 376 1035 q 283 972 307 1035 q 186 680 186 783 q 180 666 180 680 m 321 886 q 378 837 362 886 q 332 791 371 791 q 316 788 332 788 q 292 810 292 788 l 292 856 q 321 886 296 886 z "},"B":{"ha":809,"x_min":38,"x_max":770,"o":"m 363 1157 q 654 1027 524 1157 q 713 864 713 948 l 713 859 q 583 587 713 712 l 583 585 q 711 473 656 559 q 770 275 770 373 q 562 58 770 168 q 431 20 500 31 q 277 -9 401 4 q 168 -83 227 -17 q 95 -205 116 -144 l 76 -210 l 76 -153 q 127 -9 76 -146 q 163 151 163 124 l 163 859 q 198 967 198 966 q 146 994 171 994 q 46 970 62 970 l 43 970 q 38 975 38 970 q 163 1108 38 1008 q 301 1149 184 1127 q 363 1157 349 1157 m 296 1032 q 269 601 269 634 l 271 601 q 290 595 285 595 q 507 669 333 595 q 605 831 568 703 l 608 864 q 477 1029 608 960 q 388 1051 427 1051 q 296 1032 340 1046 m 401 872 q 456 826 439 872 l 456 823 q 439 785 448 785 l 410 785 q 372 823 372 796 l 372 848 q 401 872 372 872 m 266 452 l 266 164 q 298 104 266 104 q 317 102 309 102 q 564 167 424 102 q 665 313 665 224 q 589 463 665 343 q 532 484 565 484 q 266 452 475 484 m 418 359 q 475 324 467 359 l 475 311 q 415 262 444 262 q 380 300 383 262 q 418 359 380 359 z "},"C":{"ha":809,"x_min":57,"x_max":751,"o":"m 673 1172 l 675 1172 q 616 1088 675 1141 q 583 968 583 1020 l 583 956 q 600 879 583 924 l 570 879 q 521 1021 541 1021 q 307 861 450 1021 q 155 506 155 659 l 155 491 q 222 204 155 415 q 434 96 299 123 l 448 93 q 667 324 572 93 q 694 460 694 405 l 694 494 l 722 494 q 713 401 722 485 q 732 361 732 376 q 705 254 727 331 l 705 198 q 738 53 705 86 q 751 22 751 33 l 732 16 q 662 50 719 16 l 656 50 q 399 -27 471 -27 q 130 146 253 -27 q 84 324 84 229 q 65 334 65 328 l 65 340 q 57 512 65 366 q 163 873 57 693 q 437 1095 263 1031 q 597 1122 500 1114 q 673 1172 627 1136 m 345 602 q 399 540 399 589 l 399 531 q 339 463 399 502 l 323 460 l 317 460 q 258 549 288 460 q 345 602 319 602 z "},"D":{"ha":813,"x_min":3,"x_max":809,"o":"m 280 1168 l 286 1168 q 611 1010 430 1168 q 809 652 809 811 l 809 625 q 709 305 809 513 q 595 180 675 241 q 421 64 488 82 q 101 -20 336 37 l 79 -20 l 79 -18 q 185 99 119 29 q 201 161 201 136 q 180 384 194 384 q 163 400 176 384 l 163 406 q 169 411 164 411 l 182 403 l 182 408 q 169 422 182 422 q 163 435 164 422 l 163 441 q 182 449 163 446 l 182 465 q 163 473 182 470 l 163 476 q 172 555 169 495 q 163 994 172 578 q 144 1024 149 1021 q 6 932 94 1002 l 3 932 l 3 956 q 96 1122 56 1101 q 280 1168 171 1168 m 261 1057 q 283 484 270 484 q 315 245 315 264 q 307 142 315 231 l 340 142 q 595 319 408 142 q 627 362 595 322 q 668 498 654 391 q 703 642 703 613 l 703 647 q 614 859 703 724 q 302 1062 456 1062 l 280 1062 l 261 1057 m 432 655 l 443 655 q 505 612 475 655 l 505 604 q 446 568 485 568 q 402 609 438 568 l 402 612 q 432 655 419 650 z "},"E":{"ha":751,"x_min":-5,"x_max":755,"o":"m 20 1162 l 22 1162 q 288 1078 43 1162 l 294 1078 q 755 1116 686 1105 l 755 1114 q 633 975 642 1019 q 587 916 614 932 l 584 916 q 576 1005 576 993 l 576 1019 q 215 1000 290 1000 q 199 962 199 965 q 223 633 223 844 l 223 631 q 315 609 243 631 q 717 604 629 604 q 597 528 661 561 q 570 517 578 517 q 234 536 473 517 q 215 514 218 536 l 215 129 q 380 91 254 91 l 456 91 q 703 186 651 91 q 730 216 726 216 q 736 210 736 215 l 736 194 q 668 53 736 178 q 649 12 652 12 l 611 12 q 342 18 563 12 q 60 -34 189 18 l 33 -34 l 33 -7 q 128 132 128 83 l 128 186 q 120 240 128 216 l 115 237 q 109 243 109 237 l 109 248 q 128 327 109 258 q 109 359 128 336 l 109 370 q 128 408 109 380 q 120 495 123 425 q 139 661 139 600 q 147 699 147 681 q 115 929 115 905 q 82 1059 115 975 l -2 1138 l -5 1152 l -5 1154 q 20 1162 15 1162 z "},"F":{"ha":732,"x_min":-22,"x_max":753,"o":"m -22 1187 l -20 1187 q 100 1124 -9 1187 q 341 1054 233 1054 q 436 1059 374 1054 q 748 1000 551 1059 l 753 1000 l 753 997 q 675 935 699 956 q 626 812 626 879 q 612 780 617 780 q 583 921 595 900 q 186 959 289 959 l 186 598 q 447 541 305 566 q 469 560 463 541 l 501 557 q 680 571 557 557 l 680 568 q 623 435 664 538 l 621 435 q 498 457 562 457 q 287 468 421 457 q 197 465 213 465 l 195 460 l 195 267 q 224 151 224 172 l 224 118 q 184 -12 224 33 q 130 -142 156 -49 l 127 -142 q 108 -115 110 -115 q 111 -42 111 -65 l 111 186 q 94 951 105 935 q 24 1095 94 975 q -22 1173 -22 1155 l -22 1187 z "},"G":{"ha":677,"x_min":25,"x_max":652,"o":"m 644 1171 l 646 1171 q 652 1165 652 1170 l 652 1145 q 597 971 652 1138 l 597 920 q 619 791 597 818 q 644 749 644 764 l 644 743 q 633 709 644 729 q 497 903 497 771 q 508 988 500 947 q 481 1000 492 1000 q 239 900 359 1000 q 163 743 170 819 q 123 627 123 644 l 123 387 q 245 105 150 195 q 302 94 279 94 l 323 94 q 500 304 500 94 q 462 458 500 435 q 348 481 462 469 q 294 524 316 524 q 326 564 326 527 q 353 572 340 572 q 524 552 496 552 l 527 552 q 565 490 565 532 q 587 373 587 418 l 587 165 q 465 37 587 102 q 351 5 390 5 l 294 5 q 125 106 212 5 q 25 321 39 207 q 33 361 31 330 l 25 644 q 147 937 87 857 q 288 1048 216 1024 q 459 1080 320 1065 q 597 1133 552 1080 l 644 1171 m 264 333 l 283 333 q 367 293 324 333 l 367 290 q 310 250 341 250 q 264 271 277 250 l 264 333 z "},"H":{"ha":747,"x_min":45,"x_max":701,"o":"m 72 1161 l 75 1161 q 197 939 167 1026 l 197 928 q 180 895 197 922 q 178 868 178 881 l 178 502 q 349 464 178 477 q 495 450 432 450 l 574 450 l 574 453 l 568 461 l 568 464 q 585 925 585 764 q 549 1134 585 983 l 549 1137 q 568 1145 563 1145 q 633 1034 586 1105 q 701 917 701 935 l 674 827 q 655 469 655 602 l 655 467 q 677 420 655 448 q 682 399 682 410 l 682 388 q 644 312 644 359 q 633 176 633 273 l 633 114 q 663 -3 633 77 l 663 -5 q 547 -263 663 -92 q 506 -298 519 -298 l 503 -298 l 500 -285 l 500 -277 q 519 -220 500 -267 q 549 35 536 -165 l 549 117 q 566 345 549 186 q 229 388 513 363 q 208 393 229 391 q 186 290 186 378 q 180 122 180 233 l 180 111 l 197 -24 l 197 -38 q 126 -144 197 -58 q 91 -222 91 -186 q 50 -252 71 -252 q 45 -236 45 -243 l 45 -233 q 64 -149 45 -224 l 69 -111 q 64 -27 64 -68 l 83 54 q 94 127 83 96 l 94 203 q 102 331 94 259 q 75 453 75 441 l 75 472 q 94 491 75 475 l 94 987 l 64 1096 q 72 1161 72 1152 z "},"I":{"ha":809,"x_min":16,"x_max":792,"o":"m 347 1221 l 377 1221 l 374 1199 l 374 1187 q 469 1139 374 1139 q 675 1101 675 1132 q 708 903 708 951 l 705 903 q 659 991 686 924 q 537 1042 618 1029 l 518 1045 q 423 1032 439 1032 l 423 1029 q 420 868 420 926 q 461 43 420 446 l 526 43 q 770 112 742 56 l 789 118 l 792 118 l 792 112 q 757 -93 792 68 l 754 -93 q 722 -58 726 -58 l 624 -49 q 467 -58 496 -58 l 464 -58 q 439 -87 462 -58 l 442 -118 l 442 -146 l 415 -146 q 326 -71 415 -71 l 301 -71 q 81 -102 229 -71 l 81 -99 q 16 74 81 -71 l 16 115 q 258 20 93 20 l 260 20 q 374 43 308 20 l 374 45 q 336 623 336 207 l 336 787 q 309 1032 336 899 q 190 1045 300 1032 q 119 988 136 1045 l 111 935 q 84 1026 84 954 q 43 1149 84 1088 q 41 1162 43 1156 q 62 1168 51 1168 q 103 1137 71 1168 q 111 1133 106 1137 q 163 1155 119 1133 q 307 1133 182 1155 q 350 1196 350 1133 q 347 1221 347 1213 m 627 728 l 651 728 l 651 718 l 648 701 q 692 655 648 674 q 708 619 708 639 l 708 608 q 648 556 708 569 q 613 665 613 568 l 613 676 q 627 728 615 728 z "},"J":{"ha":747,"x_min":46,"x_max":700,"o":"m 548 1160 l 553 1160 q 659 1048 553 1155 q 692 1000 692 1013 l 673 899 q 686 460 686 698 q 684 433 684 436 q 700 427 700 433 l 700 224 q 559 -15 700 137 q 515 -50 555 -15 q 347 -129 408 -129 l 304 -129 q 117 -45 190 -129 q 46 202 46 46 l 46 256 q 73 484 46 275 q 76 517 73 498 q 73 552 73 530 q 103 574 73 555 l 100 555 q 217 335 100 493 q 198 316 217 331 q 146 340 193 316 l 141 343 q 133 235 133 245 l 133 218 q 241 -39 133 23 q 304 -53 276 -53 l 312 -53 q 506 134 402 -53 q 544 224 533 169 q 568 267 568 250 l 557 812 q 548 1105 548 1035 l 548 1160 z "},"K":{"ha":809,"x_min":35,"x_max":774,"o":"m 45 1161 q 165 1072 93 1118 q 224 963 194 1042 q 262 819 262 844 l 262 678 q 252 556 262 582 l 254 556 q 265 553 259 553 l 268 553 q 477 665 330 568 q 631 838 587 764 q 679 960 679 943 l 679 968 q 614 1166 679 976 l 616 1166 q 652 1120 633 1166 q 768 990 652 1106 q 774 979 768 986 l 774 949 q 610 643 753 816 q 455 524 505 539 l 455 521 q 561 439 515 495 q 648 241 633 338 q 677 38 656 197 q 705 -5 682 16 q 707 -16 707 -10 l 707 -24 q 621 -160 707 -81 q 509 -277 509 -256 l 512 -293 q 493 -339 512 -328 l 485 -339 l 479 -320 l 479 -304 q 523 -220 479 -269 q 572 -90 547 -193 q 593 46 593 23 l 593 52 q 512 363 593 142 q 439 429 496 406 q 379 439 404 437 q 355 437 364 437 l 317 437 q 254 420 287 437 l 218 244 q 272 -22 267 15 l 196 -146 q 163 -255 180 -182 q 117 -293 140 -293 l 112 -293 q 101 -288 105 -288 l 101 -282 q 158 -141 158 -237 q 120 160 158 -112 l 120 174 l 136 236 q 157 475 136 259 q 176 800 176 606 q 105 1015 176 915 q 35 1145 39 1120 l 35 1150 q 45 1161 35 1154 z "},"L":{"ha":817,"x_min":14,"x_max":803,"o":"m 76 1255 l 117 1255 l 114 1236 l 114 1198 q 217 981 127 1083 q 288 937 241 959 l 290 924 q 282 918 290 918 q 214 921 267 918 q 163 826 170 921 q 168 755 168 764 q 149 552 149 565 q 220 121 206 121 q 537 77 233 115 q 578 96 570 96 q 632 94 625 94 q 705 148 675 107 q 724 186 724 173 l 724 194 q 678 343 724 224 l 681 343 q 754 270 710 343 q 762 213 762 241 l 751 58 q 800 -137 751 35 l 803 -153 q 795 -170 795 -156 q 749 -91 789 -167 q 675 -15 720 -45 q 228 9 650 -1 l 225 9 q 92 -34 118 9 q 35 -197 68 -73 l 33 -197 q 14 -159 21 -197 l 14 -151 q 73 9 14 -71 q 103 164 103 55 q 109 202 109 164 q 87 321 87 275 l 76 1192 q 60 1198 64 1198 l 60 1219 q 76 1255 60 1227 z "},"M":{"ha":1219,"x_min":70,"x_max":1149,"o":"m 89 1210 l 127 1210 l 127 1207 q 252 974 127 1097 q 460 751 300 907 q 650 591 628 595 q 941 890 742 627 q 1011 1015 992 954 q 1049 1175 1049 1098 q 1057 1188 1053 1188 l 1060 1188 q 1090 1061 1076 1156 q 1131 987 1101 1028 l 1133 971 l 1133 591 q 1139 464 1139 514 l 1125 195 q 1149 16 1125 161 l 1149 -3 q 1095 -256 1149 -23 q 1038 -305 1069 -278 q 1055 -174 1055 -200 l 1055 -146 l 1038 5 l 1038 247 q 1000 787 1038 400 l 995 787 q 764 545 994 775 q 675 429 694 464 q 659 315 668 418 l 629 315 l 629 317 q 580 475 629 367 q 458 610 570 505 q 273 784 447 610 q 192 836 208 833 l 192 662 q 203 176 203 235 q 119 -209 203 14 q 89 -244 119 -231 l 89 -239 q 97 -119 89 -211 q 70 22 70 6 l 70 30 l 107 539 l 89 1210 m 643 273 q 690 165 661 232 q 707 135 699 153 l 707 116 q 652 81 685 81 l 644 81 q 601 143 601 81 l 601 165 q 643 273 601 220 z "},"N":{"ha":824,"x_min":3,"x_max":820,"o":"m 3 1236 q 191 1103 62 1187 q 408 864 347 955 q 565 688 504 751 q 695 582 640 618 l 695 585 q 687 994 687 852 q 603 1165 687 1033 l 603 1195 q 747 1057 669 1143 q 814 1133 793 1114 q 820 1127 820 1132 l 820 1111 q 816 994 820 1098 q 812 859 812 890 l 812 837 q 801 465 812 687 q 782 243 801 414 l 782 -20 q 715 -279 782 -31 l 668 -20 l 663 -4 q 687 335 667 -4 q 435 658 687 496 q 277 785 349 712 q 261 750 261 760 l 280 -31 q 258 -216 258 -71 l 258 -243 q 269 -327 258 -267 q 245 -332 252 -332 l 239 -332 l 239 -330 q 210 -118 229 -153 q 131 -42 188 -42 q 109 -28 109 -32 q 177 237 177 35 q 182 286 182 237 l 166 601 l 182 810 q 120 1065 182 875 q 9 1222 119 1080 q 3 1233 9 1226 l 3 1236 z "},"O":{"ha":952,"x_min":7,"x_max":945,"o":"m 492 1158 q 796 903 669 1158 q 837 627 837 813 q 842 505 837 614 q 924 616 887 552 q 945 605 944 612 q 837 345 890 517 q 688 46 763 91 q 555 0 629 0 l 506 0 q 205 174 357 0 q 102 442 102 328 l 83 518 q 18 415 18 429 q 7 453 9 415 l 7 491 q 28 646 16 646 q 99 757 49 682 q 175 974 120 801 q 267 1090 228 1090 q 492 1158 398 1158 m 235 865 l 235 857 l 248 865 q 254 860 254 865 l 254 857 q 221 800 254 851 q 194 651 194 745 q 186 640 191 651 q 370 136 186 248 q 498 103 437 103 q 609 133 543 103 q 704 285 704 187 l 704 355 q 736 456 704 413 l 736 722 q 718 776 736 730 q 620 1009 718 916 q 500 1053 563 1053 q 273 958 363 1053 q 240 879 251 930 q 235 865 235 879 m 427 608 q 481 572 481 602 l 481 567 q 449 524 481 538 q 425 521 434 521 l 414 521 q 376 556 376 530 l 376 564 q 427 608 376 599 z "},"P":{"ha":813,"x_min":7,"x_max":805,"o":"m 311 1156 l 314 1156 q 596 1042 415 1156 q 715 884 690 976 q 759 765 751 772 q 805 724 805 743 l 805 713 q 726 581 805 680 q 439 453 558 462 q 347 445 416 448 q 257 453 279 448 l 238 415 l 241 388 l 241 380 q 230 212 241 347 q 246 54 246 78 q 132 -144 246 29 q 102 -176 117 -176 q 86 -160 86 -176 l 86 -149 l 140 -14 l 140 -3 q 124 138 124 121 q 151 445 124 176 q 143 971 143 862 q 124 985 139 985 q 40 917 88 985 l 10 917 l 10 930 q 7 966 10 948 q 121 1104 7 1027 q 243 1142 162 1133 q 311 1156 288 1156 m 257 1042 l 257 1006 q 246 643 257 786 q 298 545 246 545 q 338 540 298 540 l 355 540 q 645 684 593 552 q 653 724 653 705 l 653 751 q 515 985 653 863 q 328 1050 417 1050 l 303 1050 q 257 1042 282 1050 m 393 806 q 447 751 424 806 l 447 749 q 395 700 447 712 l 382 700 q 333 749 333 716 l 333 765 q 393 806 361 806 z "},"Q":{"ha":882,"x_min":27,"x_max":854,"o":"m 385 1158 l 407 1158 q 686 955 617 1158 q 768 705 716 871 q 814 833 814 757 l 814 895 q 836 909 819 909 q 854 765 854 819 q 762 494 854 692 q 724 334 735 441 q 675 141 724 250 q 548 22 637 78 q 475 -27 543 20 q 551 -209 502 -55 q 635 -266 583 -266 q 681 -225 681 -266 l 681 -214 q 662 -157 681 -207 l 662 -141 q 673 -92 673 -97 q 635 -30 673 -64 q 643 -11 643 -18 l 648 -11 q 773 -179 737 -68 q 779 -220 779 -199 q 711 -342 779 -309 q 665 -361 682 -361 l 651 -361 q 458 -165 524 -361 q 355 -38 402 -38 q 304 -81 330 -38 q 258 -233 277 -132 q 228 -363 228 -286 l 209 -380 q 171 -252 171 -319 l 171 -239 q 252 0 180 -119 q 263 8 258 8 q 109 171 117 145 q 33 505 76 216 q 27 567 27 534 l 27 716 q 193 1109 27 996 q 385 1158 273 1158 m 141 798 l 141 732 q 133 556 141 650 q 141 410 141 452 l 141 401 q 160 380 160 391 q 269 127 160 231 q 410 76 332 76 q 581 209 489 76 q 627 326 623 283 q 624 456 624 440 q 651 513 624 484 q 673 640 673 602 q 646 697 673 647 l 646 713 q 662 708 653 713 l 662 713 q 591 977 662 801 q 429 1072 543 1072 l 391 1072 q 212 990 262 1072 q 157 863 157 933 q 141 798 141 818 m 355 627 l 363 627 q 415 589 415 614 q 418 578 418 589 q 358 540 418 540 q 312 570 312 540 l 312 583 q 355 627 318 627 z "},"R":{"ha":870,"x_min":9,"x_max":861,"o":"m 353 1157 q 663 997 545 1157 q 711 829 711 922 l 711 823 q 671 707 711 802 q 581 595 665 667 q 654 541 581 592 q 752 411 720 479 q 790 302 773 387 q 828 170 801 210 q 861 113 861 127 l 861 75 q 747 -137 860 26 q 728 -142 739 -142 l 725 -137 q 728 -50 728 -79 q 709 69 722 31 q 701 75 701 69 l 701 83 q 728 134 701 99 l 728 145 q 701 210 728 174 q 608 463 701 378 q 486 503 553 498 q 323 511 486 509 q 286 471 290 511 l 286 468 q 315 151 286 310 q 351 113 351 130 q 272 -31 351 97 q 234 -69 254 -69 l 234 -66 q 180 620 180 583 l 180 964 l 136 964 q 17 888 108 958 q 9 894 17 894 l 9 932 q 125 1097 9 1029 q 353 1157 237 1157 m 283 1040 l 283 1032 l 275 978 l 294 815 q 286 650 286 703 l 286 642 q 342 633 323 633 q 557 726 468 633 q 606 864 606 782 q 416 1038 606 1011 q 375 1040 404 1040 l 283 1040 m 408 880 l 424 880 q 492 826 450 880 q 440 785 492 797 l 429 785 q 389 821 389 791 l 389 850 q 408 880 389 867 z "},"S":{"ha":736,"x_min":60,"x_max":675,"o":"m 206 1290 l 222 1305 l 222 1299 q 304 1125 243 1125 q 477 1168 314 1125 q 589 1153 571 1153 q 610 1156 604 1156 q 629 1071 629 1086 l 629 967 q 602 846 629 901 l 600 846 q 562 995 588 995 q 499 1040 527 1040 q 250 964 319 1040 q 165 772 165 883 l 165 760 q 469 593 165 680 q 640 401 601 469 q 675 274 675 325 l 675 246 q 624 131 675 241 q 621 110 621 119 q 675 -143 675 -130 l 675 -161 q 667 -176 667 -171 q 586 -37 641 -165 q 515 27 549 27 q 220 3 240 6 q 65 -97 204 3 l 65 -64 q 73 -21 65 -41 q 60 174 60 123 l 60 192 l 133 146 q 336 125 220 125 l 385 125 q 572 234 531 125 q 581 298 581 266 q 437 477 581 371 q 233 563 370 511 q 79 751 79 638 l 79 803 q 171 1037 79 952 q 209 1147 209 1085 l 209 1171 q 193 1211 209 1177 l 206 1290 z "},"T":{"ha":949,"x_min":-32,"x_max":981,"o":"m 492 1234 l 494 1234 q 635 1134 540 1134 q 711 1128 635 1128 q 924 1150 839 1128 q 960 1009 935 1050 q 981 966 964 1007 q 973 949 973 963 l 970 949 q 876 1039 967 951 q 786 1063 843 1063 l 587 1063 q 578 505 578 686 q 595 429 595 438 q 578 271 595 411 q 611 168 578 258 q 614 149 614 165 l 614 146 q 554 38 614 137 q 546 -8 546 11 q 551 -141 551 -111 q 549 -163 549 -160 q 481 -8 517 -163 q 462 163 462 96 q 475 488 475 260 q 473 922 475 624 q 440 1053 457 1031 l 188 1053 q 169 1012 169 1037 l 169 1009 q 188 928 169 991 l 169 911 q 60 1080 143 940 q -32 1175 -1 1168 l -32 1185 q -24 1207 -32 1194 q 210 1131 69 1131 l 342 1131 q 486 1183 452 1131 q 492 1234 492 1202 m 186 687 q 234 578 204 646 q 250 549 242 566 l 250 530 q 196 494 229 494 l 188 494 q 144 557 144 494 l 144 578 q 186 687 144 633 z "},"U":{"ha":812,"x_min":28,"x_max":785,"o":"m 188 1161 l 188 1069 q 245 771 188 1046 q 299 176 264 302 q 443 20 349 20 l 451 20 q 646 273 612 20 q 652 353 652 307 l 652 377 q 619 819 627 819 l 597 889 l 597 901 q 660 1055 597 911 q 663 1067 663 1059 l 663 1104 q 671 1152 663 1131 l 673 1152 q 730 937 692 1088 q 785 922 783 922 l 785 913 q 725 825 725 871 q 722 795 722 814 l 722 783 q 749 410 722 729 l 741 245 l 749 212 q 644 8 749 114 q 489 -62 560 -62 l 448 -62 q 267 54 350 -62 q 201 195 234 98 q 163 414 163 332 l 163 613 q 79 889 163 812 q 28 930 79 892 q 55 946 28 945 q 87 932 62 946 q 101 930 92 930 l 106 930 q 158 1005 140 947 q 161 1022 161 1008 l 161 1034 q 163 1088 161 1056 q 155 1135 155 1120 l 155 1137 q 188 1161 155 1156 z "},"V":{"ha":818,"x_min":52,"x_max":766,"o":"m 733 1181 q 766 1173 743 1181 l 766 929 q 684 627 766 913 l 424 -285 l 421 -285 q 391 -210 391 -247 q 397 -149 391 -190 q 261 574 397 -9 q 196 749 226 749 l 196 752 q 210 758 210 752 l 210 768 q 68 1029 210 802 q 52 1128 52 1089 l 52 1162 q 142 1034 142 1084 q 223 926 202 998 q 432 300 323 681 l 435 300 q 470 350 448 300 q 497 430 497 418 l 497 436 q 489 463 497 450 q 573 724 573 629 q 595 829 595 787 q 633 973 633 916 q 682 1026 641 987 q 725 1156 725 1082 l 725 1176 q 733 1181 725 1181 z "},"W":{"ha":1356,"x_min":90,"x_max":1265,"o":"m 90 1156 l 115 1156 q 120 1150 120 1155 l 120 1145 q 150 990 120 1105 q 220 841 172 979 q 543 38 250 777 q 614 214 576 82 q 701 537 663 422 q 709 548 706 548 l 752 548 q 817 347 790 517 q 964 57 834 249 q 1110 735 1110 641 q 1189 1001 1110 779 q 1200 1031 1200 1012 q 1192 1109 1200 1065 l 1211 1126 q 1265 895 1265 922 l 1265 876 q 1216 762 1263 864 q 1143 342 1181 602 q 1086 171 1116 300 q 1004 -176 1045 -83 l 1004 -182 q 1021 -279 1021 -271 l 1010 -279 q 975 -220 987 -279 q 758 244 915 -67 q 747 269 753 244 q 625 -35 695 190 q 573 -285 595 -135 q 543 -298 553 -298 l 543 -269 q 475 -79 543 -260 q 166 746 316 434 q 104 827 104 804 q 98 890 104 867 q 104 939 104 917 l 104 960 q 90 1090 104 982 l 90 1156 z "},"X":{"ha":956,"x_min":45,"x_max":910,"o":"m 864 1161 l 910 1153 l 910 1147 q 788 1055 851 1122 q 745 933 763 1019 q 720 901 745 908 q 614 760 642 833 q 552 589 587 705 q 864 22 559 584 q 848 -41 848 -20 l 848 -49 q 864 -187 848 -85 q 856 -206 856 -201 l 826 -206 l 826 -203 q 715 16 826 -81 l 712 30 l 712 35 q 731 43 712 41 l 731 49 q 696 84 731 66 l 693 98 l 693 100 q 699 106 694 106 l 709 100 l 712 106 q 560 369 712 127 l 503 464 q 378 149 427 316 q 338 -30 357 59 q 254 -217 254 -127 l 248 -244 l 245 -244 q 199 -214 231 -244 l 199 -5 q 251 81 224 -5 q 435 586 435 537 l 435 589 q 189 903 435 661 q 58 1109 136 961 q 45 1128 54 1109 q 69 1134 55 1134 q 159 1047 74 1134 q 221 1020 176 1034 q 463 741 408 833 q 487 708 484 708 q 671 1028 592 943 q 864 1161 762 1133 z "},"Y":{"ha":801,"x_min":66,"x_max":734,"o":"m 207 1164 l 210 1164 q 218 1137 210 1160 q 169 1066 169 1108 l 169 992 q 248 879 169 964 q 302 813 248 873 q 470 610 427 671 l 475 610 q 606 983 606 964 q 578 1112 578 1102 q 734 924 634 1092 l 715 924 q 562 543 694 847 l 559 525 q 578 484 578 496 q 543 433 578 475 q 522 246 522 299 q 546 57 532 57 q 568 -16 568 -9 l 568 -24 q 516 -67 568 -39 q 465 -214 465 -128 q 500 -247 465 -247 q 568 -279 560 -264 l 568 -285 q 549 -304 568 -304 l 543 -304 q 473 -287 524 -304 q 465 -292 473 -292 l 465 -300 q 492 -376 465 -325 l 492 -378 l 473 -393 l 421 -393 q 397 -373 397 -393 l 397 -368 l 416 -307 l 416 -300 q 380 -269 416 -269 l 351 -269 q 332 -241 332 -257 l 332 -231 q 359 -224 349 -224 q 416 -241 379 -224 q 454 -54 454 -96 q 399 244 399 215 l 443 484 q 359 595 430 511 q 272 714 313 666 q 199 810 264 718 q 82 881 132 881 l 82 886 l 66 967 l 66 977 q 139 1126 66 1034 q 207 1164 180 1164 m 186 687 q 234 578 204 646 q 250 549 242 566 l 250 530 q 196 494 229 494 l 188 494 q 144 557 144 494 l 144 578 q 186 687 144 633 z "},"Z":{"ha":1019,"x_min":17,"x_max":1002,"o":"m 25 1274 q 77 1173 29 1273 q 182 1111 134 1117 q 337 1084 290 1084 q 663 1114 593 1114 q 703 1108 697 1108 q 956 1236 919 1189 q 966 1238 960 1238 l 977 1238 q 985 1230 981 1238 l 985 1227 q 893 1100 985 1209 q 831 1002 880 1068 q 725 815 762 909 q 557 519 725 783 q 440 256 503 420 q 361 118 401 177 l 361 115 l 375 99 q 500 107 397 107 l 576 107 q 820 129 654 118 q 945 172 907 149 q 980 191 969 191 l 985 191 q 1002 183 1002 190 l 1002 180 q 787 1 838 27 l 785 1 q 736 39 753 39 q 351 7 679 26 q 98 -47 179 -18 l 93 -39 l 93 -18 q 239 132 94 -5 q 367 335 313 218 q 554 704 454 536 q 690 1016 629 842 l 524 1016 l 291 989 l 283 989 q 58 1141 168 989 q 17 1255 17 1209 l 17 1265 q 25 1274 17 1270 m 186 687 q 234 578 204 646 q 250 549 242 566 l 250 530 q 196 494 229 494 l 188 494 q 144 557 144 494 l 144 578 q 186 687 144 633 z "},"[":{"ha":514,"x_min":0,"x_max":0,"o":""},"\\":{"ha":848,"x_min":-42,"x_max":850,"o":"m -7 1337 q 213 1099 156 1163 q 262 958 213 1052 q 452 665 406 745 q 850 27 627 345 q 677 0 711 0 l 674 0 l 661 3 l 661 16 q 671 43 668 26 q 612 236 671 114 q 362 629 529 389 q -7 1261 75 1040 q -42 1345 -42 1328 l -42 1359 q -31 1367 -42 1363 l -7 1337 z "},"]":{"ha":514,"x_min":0,"x_max":0,"o":""},"^":{"ha":878,"x_min":135,"x_max":743,"o":"m 374 1141 q 512 878 450 964 q 664 648 656 701 q 675 569 667 595 q 743 374 743 397 l 743 366 l 734 355 l 726 363 q 645 485 702 446 q 531 588 551 546 q 401 808 442 778 q 314 691 373 766 q 173 447 173 522 l 173 431 l 135 439 l 135 441 q 143 488 135 469 q 162 612 152 596 q 224 705 162 648 q 379 1044 379 913 q 371 1136 379 1053 l 371 1141 l 374 1141 z "},"_":{"ha":694,"x_min":0,"x_max":0,"o":""},"`":{"ha":477,"x_min":94,"x_max":382,"o":"m 100 1291 q 260 1133 119 1284 q 382 943 361 1013 l 379 943 q 124 1168 309 943 l 105 1166 l 94 1166 q 100 1288 94 1177 l 100 1291 z "},"a":{"ha":747,"x_min":18,"x_max":728,"o":"m 381 1160 l 392 1160 q 544 1062 461 1160 q 598 821 598 997 l 598 699 q 625 194 598 338 l 628 194 q 693 297 644 199 l 701 305 l 728 305 l 728 302 q 544 -53 709 203 q 479 -243 484 -173 q 465 -278 473 -278 q 452 -283 456 -283 l 452 -281 q 444 -115 444 -208 l 444 -99 q 487 -15 444 -92 q 528 178 522 131 q 511 517 511 448 l 511 541 q 221 571 288 566 q 151 479 159 571 q 132 210 151 387 q 151 137 151 148 q 88 -129 151 126 q 85 -153 85 -139 q 102 -283 102 -250 l 102 -292 l 99 -292 q 37 -159 37 -247 q 18 69 18 -36 l 18 72 q 45 189 18 90 l 45 357 l 91 764 q 110 812 91 812 q 221 1067 191 1022 q 381 1160 286 1160 m 180 666 l 183 666 l 492 639 l 492 642 q 500 880 492 675 q 419 1029 500 989 q 384 1035 395 1035 l 376 1035 q 283 972 307 1035 q 186 680 186 783 q 180 666 180 680 m 321 886 q 378 837 362 886 q 332 791 371 791 q 316 788 332 788 q 292 810 292 788 l 292 856 q 321 886 296 886 z "},"b":{"ha":809,"x_min":38,"x_max":770,"o":"m 363 1157 q 654 1027 524 1157 q 713 864 713 948 l 713 859 q 583 587 713 712 l 583 585 q 711 473 656 559 q 770 275 770 373 q 562 58 770 168 q 431 20 500 31 q 277 -9 401 4 q 168 -83 227 -17 q 95 -205 116 -144 l 76 -210 l 76 -153 q 127 -9 76 -146 q 163 151 163 124 l 163 859 q 198 967 198 966 q 146 994 171 994 q 46 970 62 970 l 43 970 q 38 975 38 970 q 163 1108 38 1008 q 301 1149 184 1127 q 363 1157 349 1157 m 296 1032 q 269 601 269 634 l 271 601 q 290 595 285 595 q 507 669 333 595 q 605 831 568 703 l 608 864 q 477 1029 608 960 q 388 1051 427 1051 q 296 1032 340 1046 m 401 872 q 456 826 439 872 l 456 823 q 439 785 448 785 l 410 785 q 372 823 372 796 l 372 848 q 401 872 372 872 m 266 452 l 266 164 q 298 104 266 104 q 317 102 309 102 q 564 167 424 102 q 665 313 665 224 q 589 463 665 343 q 532 484 565 484 q 266 452 475 484 m 418 359 q 475 324 467 359 l 475 311 q 415 262 444 262 q 380 300 383 262 q 418 359 380 359 z "},"c":{"ha":809,"x_min":57,"x_max":751,"o":"m 673 1172 l 675 1172 q 616 1088 675 1141 q 583 968 583 1020 l 583 956 q 600 879 583 924 l 570 879 q 521 1021 541 1021 q 307 861 450 1021 q 155 506 155 659 l 155 491 q 222 204 155 415 q 434 96 299 123 l 448 93 q 667 324 572 93 q 694 460 694 405 l 694 494 l 722 494 q 713 401 722 485 q 732 361 732 376 q 705 254 727 331 l 705 198 q 738 53 705 86 q 751 22 751 33 l 732 16 q 662 50 719 16 l 656 50 q 399 -27 471 -27 q 130 146 253 -27 q 84 324 84 229 q 65 334 65 328 l 65 340 q 57 512 65 366 q 163 873 57 693 q 437 1095 263 1031 q 597 1122 500 1114 q 673 1172 627 1136 m 345 602 q 399 540 399 589 l 399 531 q 339 463 399 502 l 323 460 l 317 460 q 258 549 288 460 q 345 602 319 602 z "},"d":{"ha":813,"x_min":3,"x_max":809,"o":"m 280 1168 l 286 1168 q 611 1010 430 1168 q 809 652 809 811 l 809 625 q 709 305 809 513 q 595 180 675 241 q 421 64 488 82 q 101 -20 336 37 l 79 -20 l 79 -18 q 185 99 119 29 q 201 161 201 136 q 180 384 194 384 q 163 400 176 384 l 163 406 q 169 411 164 411 l 182 403 l 182 408 q 169 422 182 422 q 163 435 164 422 l 163 441 q 182 449 163 446 l 182 465 q 163 473 182 470 l 163 476 q 172 555 169 495 q 163 994 172 578 q 144 1024 149 1021 q 6 932 94 1002 l 3 932 l 3 956 q 96 1122 56 1101 q 280 1168 171 1168 m 261 1057 q 283 484 270 484 q 315 245 315 264 q 307 142 315 231 l 340 142 q 595 319 408 142 q 627 362 595 322 q 668 498 654 391 q 703 642 703 613 l 703 647 q 614 859 703 724 q 302 1062 456 1062 l 280 1062 l 261 1057 m 432 655 l 443 655 q 505 612 475 655 l 505 604 q 446 568 485 568 q 402 609 438 568 l 402 612 q 432 655 419 650 z "},"e":{"ha":751,"x_min":-5,"x_max":755,"o":"m 20 1162 l 22 1162 q 288 1078 43 1162 l 294 1078 q 755 1116 686 1105 l 755 1114 q 633 975 642 1019 q 587 916 614 932 l 584 916 q 576 1005 576 993 l 576 1019 q 215 1000 290 1000 q 199 962 199 965 q 223 633 223 844 l 223 631 q 315 609 243 631 q 717 604 629 604 q 597 528 661 561 q 570 517 578 517 q 234 536 473 517 q 215 514 218 536 l 215 129 q 380 91 254 91 l 456 91 q 703 186 651 91 q 730 216 726 216 q 736 210 736 215 l 736 194 q 668 53 736 178 q 649 12 652 12 l 611 12 q 342 18 563 12 q 60 -34 189 18 l 33 -34 l 33 -7 q 128 132 128 83 l 128 186 q 120 240 128 216 l 115 237 q 109 243 109 237 l 109 248 q 128 327 109 258 q 109 359 128 336 l 109 370 q 128 408 109 380 q 120 495 123 425 q 139 661 139 600 q 147 699 147 681 q 115 929 115 905 q 82 1059 115 975 l -2 1138 l -5 1152 l -5 1154 q 20 1162 15 1162 z "},"f":{"ha":732,"x_min":-22,"x_max":753,"o":"m -22 1187 l -20 1187 q 100 1124 -9 1187 q 341 1054 233 1054 q 436 1059 374 1054 q 748 1000 551 1059 l 753 1000 l 753 997 q 675 935 699 956 q 626 812 626 879 q 612 780 617 780 q 583 921 595 900 q 186 959 289 959 l 186 598 q 447 541 305 566 q 469 560 463 541 l 501 557 q 680 571 557 557 l 680 568 q 623 435 664 538 l 621 435 q 498 457 562 457 q 287 468 421 457 q 197 465 213 465 l 195 460 l 195 267 q 224 151 224 172 l 224 118 q 184 -12 224 33 q 130 -142 156 -49 l 127 -142 q 108 -115 110 -115 q 111 -42 111 -65 l 111 186 q 94 951 105 935 q 24 1095 94 975 q -22 1173 -22 1155 l -22 1187 z "},"g":{"ha":677,"x_min":25,"x_max":652,"o":"m 644 1171 l 646 1171 q 652 1165 652 1170 l 652 1145 q 597 971 652 1138 l 597 920 q 619 791 597 818 q 644 749 644 764 l 644 743 q 633 709 644 729 q 497 903 497 771 q 508 988 500 947 q 481 1000 492 1000 q 239 900 359 1000 q 163 743 170 819 q 123 627 123 644 l 123 387 q 245 105 150 195 q 302 94 279 94 l 323 94 q 500 304 500 94 q 462 458 500 435 q 348 481 462 469 q 294 524 316 524 q 326 564 326 527 q 353 572 340 572 q 524 552 496 552 l 527 552 q 565 490 565 532 q 587 373 587 418 l 587 165 q 465 37 587 102 q 351 5 390 5 l 294 5 q 125 106 212 5 q 25 321 39 207 q 33 361 31 330 l 25 644 q 147 937 87 857 q 288 1048 216 1024 q 459 1080 320 1065 q 597 1133 552 1080 l 644 1171 m 264 333 l 283 333 q 367 293 324 333 l 367 290 q 310 250 341 250 q 264 271 277 250 l 264 333 z "},"h":{"ha":747,"x_min":45,"x_max":701,"o":"m 72 1161 l 75 1161 q 197 939 167 1026 l 197 928 q 180 895 197 922 q 178 868 178 881 l 178 502 q 349 464 178 477 q 495 450 432 450 l 574 450 l 574 453 l 568 461 l 568 464 q 585 925 585 764 q 549 1134 585 983 l 549 1137 q 568 1145 563 1145 q 633 1034 586 1105 q 701 917 701 935 l 674 827 q 655 469 655 602 l 655 467 q 677 420 655 448 q 682 399 682 410 l 682 388 q 644 312 644 359 q 633 176 633 273 l 633 114 q 663 -3 633 77 l 663 -5 q 547 -263 663 -92 q 506 -298 519 -298 l 503 -298 l 500 -285 l 500 -277 q 519 -220 500 -267 q 549 35 536 -165 l 549 117 q 566 345 549 186 q 229 388 513 363 q 208 393 229 391 q 186 290 186 378 q 180 122 180 233 l 180 111 l 197 -24 l 197 -38 q 126 -144 197 -58 q 91 -222 91 -186 q 50 -252 71 -252 q 45 -236 45 -243 l 45 -233 q 64 -149 45 -224 l 69 -111 q 64 -27 64 -68 l 83 54 q 94 127 83 96 l 94 203 q 102 331 94 259 q 75 453 75 441 l 75 472 q 94 491 75 475 l 94 987 l 64 1096 q 72 1161 72 1152 z "},"i":{"ha":809,"x_min":16,"x_max":792,"o":"m 347 1221 l 377 1221 l 374 1199 l 374 1187 q 469 1139 374 1139 q 675 1101 675 1132 q 708 903 708 951 l 705 903 q 659 991 686 924 q 537 1042 618 1029 l 518 1045 q 423 1032 439 1032 l 423 1029 q 420 868 420 926 q 461 43 420 446 l 526 43 q 770 112 742 56 l 789 118 l 792 118 l 792 112 q 757 -93 792 68 l 754 -93 q 722 -58 726 -58 l 624 -49 q 467 -58 496 -58 l 464 -58 q 439 -87 462 -58 l 442 -118 l 442 -146 l 415 -146 q 326 -71 415 -71 l 301 -71 q 81 -102 229 -71 l 81 -99 q 16 74 81 -71 l 16 115 q 258 20 93 20 l 260 20 q 374 43 308 20 l 374 45 q 336 623 336 207 l 336 787 q 309 1032 336 899 q 190 1045 300 1032 q 119 988 136 1045 l 111 935 q 84 1026 84 954 q 43 1149 84 1088 q 41 1162 43 1156 q 62 1168 51 1168 q 103 1137 71 1168 q 111 1133 106 1137 q 163 1155 119 1133 q 307 1133 182 1155 q 350 1196 350 1133 q 347 1221 347 1213 m 627 728 l 651 728 l 651 718 l 648 701 q 692 655 648 674 q 708 619 708 639 l 708 608 q 648 556 708 569 q 613 665 613 568 l 613 676 q 627 728 615 728 z "},"j":{"ha":747,"x_min":46,"x_max":700,"o":"m 548 1160 l 553 1160 q 659 1048 553 1155 q 692 1000 692 1013 l 673 899 q 686 460 686 698 q 684 433 684 436 q 700 427 700 433 l 700 224 q 559 -15 700 137 q 515 -50 555 -15 q 347 -129 408 -129 l 304 -129 q 117 -45 190 -129 q 46 202 46 46 l 46 256 q 73 484 46 275 q 76 517 73 498 q 73 552 73 530 q 103 574 73 555 l 100 555 q 217 335 100 493 q 198 316 217 331 q 146 340 193 316 l 141 343 q 133 235 133 245 l 133 218 q 241 -39 133 23 q 304 -53 276 -53 l 312 -53 q 506 134 402 -53 q 544 224 533 169 q 568 267 568 250 l 557 812 q 548 1105 548 1035 l 548 1160 z "},"k":{"ha":809,"x_min":35,"x_max":774,"o":"m 45 1161 q 165 1072 93 1118 q 224 963 194 1042 q 262 819 262 844 l 262 678 q 252 556 262 582 l 254 556 q 265 553 259 553 l 268 553 q 477 665 330 568 q 631 838 587 764 q 679 960 679 943 l 679 968 q 614 1166 679 976 l 616 1166 q 652 1120 633 1166 q 768 990 652 1106 q 774 979 768 986 l 774 949 q 610 643 753 816 q 455 524 505 539 l 455 521 q 561 439 515 495 q 648 241 633 338 q 677 38 656 197 q 705 -5 682 16 q 707 -16 707 -10 l 707 -24 q 621 -160 707 -81 q 509 -277 509 -256 l 512 -293 q 493 -339 512 -328 l 485 -339 l 479 -320 l 479 -304 q 523 -220 479 -269 q 572 -90 547 -193 q 593 46 593 23 l 593 52 q 512 363 593 142 q 439 429 496 406 q 379 439 404 437 q 355 437 364 437 l 317 437 q 254 420 287 437 l 218 244 q 272 -22 267 15 l 196 -146 q 163 -255 180 -182 q 117 -293 140 -293 l 112 -293 q 101 -288 105 -288 l 101 -282 q 158 -141 158 -237 q 120 160 158 -112 l 120 174 l 136 236 q 157 475 136 259 q 176 800 176 606 q 105 1015 176 915 q 35 1145 39 1120 l 35 1150 q 45 1161 35 1154 z "},"l":{"ha":817,"x_min":14,"x_max":803,"o":"m 76 1255 l 117 1255 l 114 1236 l 114 1198 q 217 981 127 1083 q 288 937 241 959 l 290 924 q 282 918 290 918 q 214 921 267 918 q 163 826 170 921 q 168 755 168 764 q 149 552 149 565 q 220 121 206 121 q 537 77 233 115 q 578 96 570 96 q 632 94 625 94 q 705 148 675 107 q 724 186 724 173 l 724 194 q 678 343 724 224 l 681 343 q 754 270 710 343 q 762 213 762 241 l 751 58 q 800 -137 751 35 l 803 -153 q 795 -170 795 -156 q 749 -91 789 -167 q 675 -15 720 -45 q 228 9 650 -1 l 225 9 q 92 -34 118 9 q 35 -197 68 -73 l 33 -197 q 14 -159 21 -197 l 14 -151 q 73 9 14 -71 q 103 164 103 55 q 109 202 109 164 q 87 321 87 275 l 76 1192 q 60 1198 64 1198 l 60 1219 q 76 1255 60 1227 z "},"m":{"ha":1219,"x_min":70,"x_max":1149,"o":"m 89 1210 l 127 1210 l 127 1207 q 252 974 127 1097 q 460 751 300 907 q 650 591 628 595 q 941 890 742 627 q 1011 1015 992 954 q 1049 1175 1049 1098 q 1057 1188 1053 1188 l 1060 1188 q 1090 1061 1076 1156 q 1131 987 1101 1028 l 1133 971 l 1133 591 q 1139 464 1139 514 l 1125 195 q 1149 16 1125 161 l 1149 -3 q 1095 -256 1149 -23 q 1038 -305 1069 -278 q 1055 -174 1055 -200 l 1055 -146 l 1038 5 l 1038 247 q 1000 787 1038 400 l 995 787 q 764 545 994 775 q 675 429 694 464 q 659 315 668 418 l 629 315 l 629 317 q 580 475 629 367 q 458 610 570 505 q 273 784 447 610 q 192 836 208 833 l 192 662 q 203 176 203 235 q 119 -209 203 14 q 89 -244 119 -231 l 89 -239 q 97 -119 89 -211 q 70 22 70 6 l 70 30 l 107 539 l 89 1210 m 643 273 q 690 165 661 232 q 707 135 699 153 l 707 116 q 652 81 685 81 l 644 81 q 601 143 601 81 l 601 165 q 643 273 601 220 z "},"n":{"ha":824,"x_min":3,"x_max":820,"o":"m 3 1236 q 191 1103 62 1187 q 408 864 347 955 q 565 688 504 751 q 695 582 640 618 l 695 585 q 687 994 687 852 q 603 1165 687 1033 l 603 1195 q 747 1057 669 1143 q 814 1133 793 1114 q 820 1127 820 1132 l 820 1111 q 816 994 820 1098 q 812 859 812 890 l 812 837 q 801 465 812 687 q 782 243 801 414 l 782 -20 q 715 -279 782 -31 l 668 -20 l 663 -4 q 687 335 667 -4 q 435 658 687 496 q 277 785 349 712 q 261 750 261 760 l 280 -31 q 258 -216 258 -71 l 258 -243 q 269 -327 258 -267 q 245 -332 252 -332 l 239 -332 l 239 -330 q 210 -118 229 -153 q 131 -42 188 -42 q 109 -28 109 -32 q 177 237 177 35 q 182 286 182 237 l 166 601 l 182 810 q 120 1065 182 875 q 9 1222 119 1080 q 3 1233 9 1226 l 3 1236 z "},"o":{"ha":952,"x_min":7,"x_max":945,"o":"m 492 1158 q 796 903 669 1158 q 837 627 837 813 q 842 505 837 614 q 924 616 887 552 q 945 605 944 612 q 837 345 890 517 q 688 46 763 91 q 555 0 629 0 l 506 0 q 205 174 357 0 q 102 442 102 328 l 83 518 q 18 415 18 429 q 7 453 9 415 l 7 491 q 28 646 16 646 q 99 757 49 682 q 175 974 120 801 q 267 1090 228 1090 q 492 1158 398 1158 m 235 865 l 235 857 l 248 865 q 254 860 254 865 l 254 857 q 221 800 254 851 q 194 651 194 745 q 186 640 191 651 q 370 136 186 248 q 498 103 437 103 q 609 133 543 103 q 704 285 704 187 l 704 355 q 736 456 704 413 l 736 722 q 718 776 736 730 q 620 1009 718 916 q 500 1053 563 1053 q 273 958 363 1053 q 240 879 251 930 q 235 865 235 879 m 427 608 q 481 572 481 602 l 481 567 q 449 524 481 538 q 425 521 434 521 l 414 521 q 376 556 376 530 l 376 564 q 427 608 376 599 z "},"p":{"ha":813,"x_min":7,"x_max":805,"o":"m 311 1156 l 314 1156 q 596 1042 415 1156 q 715 884 690 976 q 759 765 751 772 q 805 724 805 743 l 805 713 q 726 581 805 680 q 439 453 558 462 q 347 445 416 448 q 257 453 279 448 l 238 415 l 241 388 l 241 380 q 230 212 241 347 q 246 54 246 78 q 132 -144 246 29 q 102 -176 117 -176 q 86 -160 86 -176 l 86 -149 l 140 -14 l 140 -3 q 124 138 124 121 q 151 445 124 176 q 143 971 143 862 q 124 985 139 985 q 40 917 88 985 l 10 917 l 10 930 q 7 966 10 948 q 121 1104 7 1027 q 243 1142 162 1133 q 311 1156 288 1156 m 257 1042 l 257 1006 q 246 643 257 786 q 298 545 246 545 q 338 540 298 540 l 355 540 q 645 684 593 552 q 653 724 653 705 l 653 751 q 515 985 653 863 q 328 1050 417 1050 l 303 1050 q 257 1042 282 1050 m 393 806 q 447 751 424 806 l 447 749 q 395 700 447 712 l 382 700 q 333 749 333 716 l 333 765 q 393 806 361 806 z "},"q":{"ha":882,"x_min":27,"x_max":854,"o":"m 385 1158 l 407 1158 q 686 955 617 1158 q 768 705 716 871 q 814 833 814 757 l 814 895 q 836 909 819 909 q 854 765 854 819 q 762 494 854 692 q 724 334 735 441 q 675 141 724 250 q 548 22 637 78 q 475 -27 543 20 q 551 -209 502 -55 q 635 -266 583 -266 q 681 -225 681 -266 l 681 -214 q 662 -157 681 -207 l 662 -141 q 673 -92 673 -97 q 635 -30 673 -64 q 643 -11 643 -18 l 648 -11 q 773 -179 737 -68 q 779 -220 779 -199 q 711 -342 779 -309 q 665 -361 682 -361 l 651 -361 q 458 -165 524 -361 q 355 -38 402 -38 q 304 -81 330 -38 q 258 -233 277 -132 q 228 -363 228 -286 l 209 -380 q 171 -252 171 -319 l 171 -239 q 252 0 180 -119 q 263 8 258 8 q 109 171 117 145 q 33 505 76 216 q 27 567 27 534 l 27 716 q 193 1109 27 996 q 385 1158 273 1158 m 141 798 l 141 732 q 133 556 141 650 q 141 410 141 452 l 141 401 q 160 380 160 391 q 269 127 160 231 q 410 76 332 76 q 581 209 489 76 q 627 326 623 283 q 624 456 624 440 q 651 513 624 484 q 673 640 673 602 q 646 697 673 647 l 646 713 q 662 708 653 713 l 662 713 q 591 977 662 801 q 429 1072 543 1072 l 391 1072 q 212 990 262 1072 q 157 863 157 933 q 141 798 141 818 m 355 627 l 363 627 q 415 589 415 614 q 418 578 418 589 q 358 540 418 540 q 312 570 312 540 l 312 583 q 355 627 318 627 z "},"r":{"ha":870,"x_min":9,"x_max":861,"o":"m 353 1157 q 663 997 545 1157 q 711 829 711 922 l 711 823 q 671 707 711 802 q 581 595 665 667 q 654 541 581 592 q 752 411 720 479 q 790 302 773 387 q 828 170 801 210 q 861 113 861 127 l 861 75 q 747 -137 860 26 q 728 -142 739 -142 l 725 -137 q 728 -50 728 -79 q 709 69 722 31 q 701 75 701 69 l 701 83 q 728 134 701 99 l 728 145 q 701 210 728 174 q 608 463 701 378 q 486 503 553 498 q 323 511 486 509 q 286 471 290 511 l 286 468 q 315 151 286 310 q 351 113 351 130 q 272 -31 351 97 q 234 -69 254 -69 l 234 -66 q 180 620 180 583 l 180 964 l 136 964 q 17 888 108 958 q 9 894 17 894 l 9 932 q 125 1097 9 1029 q 353 1157 237 1157 m 283 1040 l 283 1032 l 275 978 l 294 815 q 286 650 286 703 l 286 642 q 342 633 323 633 q 557 726 468 633 q 606 864 606 782 q 416 1038 606 1011 q 375 1040 404 1040 l 283 1040 m 408 880 l 424 880 q 492 826 450 880 q 440 785 492 797 l 429 785 q 389 821 389 791 l 389 850 q 408 880 389 867 z "},"s":{"ha":736,"x_min":60,"x_max":675,"o":"m 206 1290 l 222 1305 l 222 1299 q 304 1125 243 1125 q 477 1168 314 1125 q 589 1153 571 1153 q 610 1156 604 1156 q 629 1071 629 1086 l 629 967 q 602 846 629 901 l 600 846 q 562 995 588 995 q 499 1040 527 1040 q 250 964 319 1040 q 165 772 165 883 l 165 760 q 469 593 165 680 q 640 401 601 469 q 675 274 675 325 l 675 246 q 624 131 675 241 q 621 110 621 119 q 675 -143 675 -130 l 675 -161 q 667 -176 667 -171 q 586 -37 641 -165 q 515 27 549 27 q 220 3 240 6 q 65 -97 204 3 l 65 -64 q 73 -21 65 -41 q 60 174 60 123 l 60 192 l 133 146 q 336 125 220 125 l 385 125 q 572 234 531 125 q 581 298 581 266 q 437 477 581 371 q 233 563 370 511 q 79 751 79 638 l 79 803 q 171 1037 79 952 q 209 1147 209 1085 l 209 1171 q 193 1211 209 1177 l 206 1290 z "},"t":{"ha":949,"x_min":-32,"x_max":981,"o":"m 492 1234 l 494 1234 q 635 1134 540 1134 q 711 1128 635 1128 q 924 1150 839 1128 q 960 1009 935 1050 q 981 966 964 1007 q 973 949 973 963 l 970 949 q 876 1039 967 951 q 786 1063 843 1063 l 587 1063 q 578 505 578 686 q 595 429 595 438 q 578 271 595 411 q 611 168 578 258 q 614 149 614 165 l 614 146 q 554 38 614 137 q 546 -8 546 11 q 551 -141 551 -111 q 549 -163 549 -160 q 481 -8 517 -163 q 462 163 462 96 q 475 488 475 260 q 473 922 475 624 q 440 1053 457 1031 l 188 1053 q 169 1012 169 1037 l 169 1009 q 188 928 169 991 l 169 911 q 60 1080 143 940 q -32 1175 -1 1168 l -32 1185 q -24 1207 -32 1194 q 210 1131 69 1131 l 342 1131 q 486 1183 452 1131 q 492 1234 492 1202 m 186 687 q 234 578 204 646 q 250 549 242 566 l 250 530 q 196 494 229 494 l 188 494 q 144 557 144 494 l 144 578 q 186 687 144 633 z "},"u":{"ha":812,"x_min":28,"x_max":785,"o":"m 188 1161 l 188 1069 q 245 771 188 1046 q 299 176 264 302 q 443 20 349 20 l 451 20 q 646 273 612 20 q 652 353 652 307 l 652 377 q 619 819 627 819 l 597 889 l 597 901 q 660 1055 597 911 q 663 1067 663 1059 l 663 1104 q 671 1152 663 1131 l 673 1152 q 730 937 692 1088 q 785 922 783 922 l 785 913 q 725 825 725 871 q 722 795 722 814 l 722 783 q 749 410 722 729 l 741 245 l 749 212 q 644 8 749 114 q 489 -62 560 -62 l 448 -62 q 267 54 350 -62 q 201 195 234 98 q 163 414 163 332 l 163 613 q 79 889 163 812 q 28 930 79 892 q 55 946 28 945 q 87 932 62 946 q 101 930 92 930 l 106 930 q 158 1005 140 947 q 161 1022 161 1008 l 161 1034 q 163 1088 161 1056 q 155 1135 155 1120 l 155 1137 q 188 1161 155 1156 z "},"v":{"ha":818,"x_min":52,"x_max":766,"o":"m 733 1181 q 766 1173 743 1181 l 766 929 q 684 627 766 913 l 424 -285 l 421 -285 q 391 -210 391 -247 q 397 -149 391 -190 q 261 574 397 -9 q 196 749 226 749 l 196 752 q 210 758 210 752 l 210 768 q 68 1029 210 802 q 52 1128 52 1089 l 52 1162 q 142 1034 142 1084 q 223 926 202 998 q 432 300 323 681 l 435 300 q 470 350 448 300 q 497 430 497 418 l 497 436 q 489 463 497 450 q 573 724 573 629 q 595 829 595 787 q 633 973 633 916 q 682 1026 641 987 q 725 1156 725 1082 l 725 1176 q 733 1181 725 1181 z "},"w":{"ha":1356,"x_min":90,"x_max":1265,"o":"m 90 1156 l 115 1156 q 120 1150 120 1155 l 120 1145 q 150 990 120 1105 q 220 841 172 979 q 543 38 250 777 q 614 214 576 82 q 701 537 663 422 q 709 548 706 548 l 752 548 q 817 347 790 517 q 964 57 834 249 q 1110 735 1110 641 q 1189 1001 1110 779 q 1200 1031 1200 1012 q 1192 1109 1200 1065 l 1211 1126 q 1265 895 1265 922 l 1265 876 q 1216 762 1263 864 q 1143 342 1181 602 q 1086 171 1116 300 q 1004 -176 1045 -83 l 1004 -182 q 1021 -279 1021 -271 l 1010 -279 q 975 -220 987 -279 q 758 244 915 -67 q 747 269 753 244 q 625 -35 695 190 q 573 -285 595 -135 q 543 -298 553 -298 l 543 -269 q 475 -79 543 -260 q 166 746 316 434 q 104 827 104 804 q 98 890 104 867 q 104 939 104 917 l 104 960 q 90 1090 104 982 l 90 1156 z "},"x":{"ha":956,"x_min":45,"x_max":910,"o":"m 864 1161 l 910 1153 l 910 1147 q 788 1055 851 1122 q 745 933 763 1019 q 720 901 745 908 q 614 760 642 833 q 552 589 587 705 q 864 22 559 584 q 848 -41 848 -20 l 848 -49 q 864 -187 848 -85 q 856 -206 856 -201 l 826 -206 l 826 -203 q 715 16 826 -81 l 712 30 l 712 35 q 731 43 712 41 l 731 49 q 696 84 731 66 l 693 98 l 693 100 q 699 106 694 106 l 709 100 l 712 106 q 560 369 712 127 l 503 464 q 378 149 427 316 q 338 -30 357 59 q 254 -217 254 -127 l 248 -244 l 245 -244 q 199 -214 231 -244 l 199 -5 q 251 81 224 -5 q 435 586 435 537 l 435 589 q 189 903 435 661 q 58 1109 136 961 q 45 1128 54 1109 q 69 1134 55 1134 q 159 1047 74 1134 q 221 1020 176 1034 q 463 741 408 833 q 487 708 484 708 q 671 1028 592 943 q 864 1161 762 1133 z "},"y":{"ha":801,"x_min":66,"x_max":734,"o":"m 207 1164 l 210 1164 q 218 1137 210 1160 q 169 1066 169 1108 l 169 992 q 248 879 169 964 q 302 813 248 873 q 470 610 427 671 l 475 610 q 606 983 606 964 q 578 1112 578 1102 q 734 924 634 1092 l 715 924 q 562 543 694 847 l 559 525 q 578 484 578 496 q 543 433 578 475 q 522 246 522 299 q 546 57 532 57 q 568 -16 568 -9 l 568 -24 q 516 -67 568 -39 q 465 -214 465 -128 q 500 -247 465 -247 q 568 -279 560 -264 l 568 -285 q 549 -304 568 -304 l 543 -304 q 473 -287 524 -304 q 465 -292 473 -292 l 465 -300 q 492 -376 465 -325 l 492 -378 l 473 -393 l 421 -393 q 397 -373 397 -393 l 397 -368 l 416 -307 l 416 -300 q 380 -269 416 -269 l 351 -269 q 332 -241 332 -257 l 332 -231 q 359 -224 349 -224 q 416 -241 379 -224 q 454 -54 454 -96 q 399 244 399 215 l 443 484 q 359 595 430 511 q 272 714 313 666 q 199 810 264 718 q 82 881 132 881 l 82 886 l 66 967 l 66 977 q 139 1126 66 1034 q 207 1164 180 1164 m 186 687 q 234 578 204 646 q 250 549 242 566 l 250 530 q 196 494 229 494 l 188 494 q 144 557 144 494 l 144 578 q 186 687 144 633 z "},"z":{"ha":1019,"x_min":17,"x_max":1002,"o":"m 25 1274 q 77 1173 29 1273 q 182 1111 134 1117 q 337 1084 290 1084 q 663 1114 593 1114 q 703 1108 697 1108 q 956 1236 919 1189 q 966 1238 960 1238 l 977 1238 q 985 1230 981 1238 l 985 1227 q 893 1100 985 1209 q 831 1002 880 1068 q 725 815 762 909 q 557 519 725 783 q 440 256 503 420 q 361 118 401 177 l 361 115 l 375 99 q 500 107 397 107 l 576 107 q 820 129 654 118 q 945 172 907 149 q 980 191 969 191 l 985 191 q 1002 183 1002 190 l 1002 180 q 787 1 838 27 l 785 1 q 736 39 753 39 q 351 7 679 26 q 98 -47 179 -18 l 93 -39 l 93 -18 q 239 132 94 -5 q 367 335 313 218 q 554 704 454 536 q 690 1016 629 842 l 524 1016 l 291 989 l 283 989 q 58 1141 168 989 q 17 1255 17 1209 l 17 1265 q 25 1274 17 1270 m 186 687 q 234 578 204 646 q 250 549 242 566 l 250 530 q 196 494 229 494 l 188 494 q 144 557 144 494 l 144 578 q 186 687 144 633 z "},"{":{"ha":688,"x_min":0,"x_max":0,"o":""},"|":{"ha":688,"x_min":0,"x_max":0,"o":""},"}":{"ha":688,"x_min":0,"x_max":0,"o":""},"~":{"ha":688,"x_min":0,"x_max":0,"o":""},"":{"ha":456,"x_min":0,"x_max":0,"o":""},"":{"ha":772,"x_min":121,"x_max":650,"o":"m 303 1139 q 441 1004 303 1135 q 455 977 455 983 q 436 892 436 906 q 444 811 444 827 l 444 808 q 485 811 471 811 l 490 811 q 588 768 564 811 q 596 741 596 754 l 596 730 q 569 616 596 713 q 488 692 513 692 l 422 667 q 314 654 386 654 l 295 654 q 227 548 227 578 l 227 545 q 306 467 227 492 l 319 467 q 479 496 427 496 q 536 491 520 491 q 610 551 557 491 l 612 551 q 640 434 618 551 q 650 366 650 412 q 642 363 648 366 q 593 369 620 369 q 512 323 512 369 l 550 24 q 536 0 550 12 q 482 84 519 7 q 425 122 454 114 l 425 127 q 387 274 425 245 q 271 334 357 307 q 154 450 187 372 q 121 564 121 519 l 121 575 q 238 779 121 723 q 349 806 299 806 l 349 868 q 300 1077 349 878 q 292 1128 292 1109 q 303 1139 292 1133 z "},"":{"ha":688,"x_min":-98,"x_max":786,"o":"m 48 1264 q 146 1218 94 1227 l 149 1218 q 262 1234 163 1218 l 268 1234 q 428 1164 328 1234 q 501 1025 460 1135 q 634 827 568 918 l 634 825 q 618 817 631 817 l 610 817 q 436 993 495 817 q 314 1131 384 1107 q 249 1139 279 1139 q 162 966 192 1139 l 159 939 l 170 773 q 168 724 168 753 q 208 694 168 698 q 314 765 250 705 q 330 798 330 786 l 360 798 l 360 795 q 368 705 368 718 l 368 692 q 279 594 368 623 q 170 600 271 594 l 170 393 l 168 366 l 173 363 l 184 363 q 222 388 193 363 q 309 399 263 399 l 347 399 q 626 277 410 399 q 699 491 674 300 l 699 496 q 721 505 709 496 q 786 307 786 390 l 786 296 q 680 187 786 237 q 623 171 645 171 q 460 269 574 171 q 349 304 397 304 q 127 198 180 266 q 29 92 90 168 q -50 0 -15 37 l -55 0 l -60 19 q -25 114 -60 37 q -12 225 -12 151 q 83 380 58 328 l 73 643 l 70 643 q -87 475 70 637 q -98 486 -92 475 l -98 496 q -71 610 -98 507 q 35 757 -71 720 l 45 757 l 73 754 l 75 760 l 75 773 q 64 1128 64 1045 l 64 1156 q 35 1242 64 1175 l 35 1261 l 48 1264 z "},"":{"ha":688,"x_min":0,"x_max":0,"o":""},"":{"ha":856,"x_min":39,"x_max":817,"o":"m 39 1156 l 41 1156 q 93 1071 77 1156 q 185 957 142 984 q 280 865 220 945 q 465 633 429 688 q 522 762 469 633 q 614 1082 584 922 q 619 1141 614 1103 l 649 1141 l 649 1125 q 703 1002 649 1028 l 706 1002 q 524 490 524 496 l 524 450 l 527 450 q 809 425 799 429 q 817 387 817 398 l 817 380 q 690 403 707 403 l 551 403 q 535 396 535 401 l 535 385 q 595 333 535 333 q 720 309 688 333 l 801 270 q 790 254 793 254 q 587 281 683 281 l 570 281 l 562 277 q 619 149 575 233 l 619 142 q 557 -3 619 133 q 530 -154 543 -54 q 516 -170 521 -170 l 513 -170 q 524 -35 513 -159 q 473 221 473 140 q 440 288 453 288 q 296 302 382 302 l 191 302 l 191 333 l 229 331 q 413 335 374 335 q 440 333 437 333 q 448 367 448 344 l 448 369 q 286 425 448 425 q 144 418 214 422 l 144 420 q 196 454 162 446 q 226 465 203 454 l 242 465 q 437 458 267 465 l 437 537 q 204 836 303 738 q 82 932 161 885 q 58 1093 58 968 q 39 1136 39 1123 l 39 1156 z "},"":{"ha":688,"x_min":0,"x_max":0,"o":""},"":{"ha":688,"x_min":0,"x_max":0,"o":""},"":{"ha":685,"x_min":85,"x_max":600,"o":"m 508 1101 q 600 1061 558 1101 l 600 1031 q 584 979 595 979 q 551 974 565 974 l 527 974 q 451 1036 482 974 l 451 1050 q 500 1101 451 1079 l 508 1101 m 144 1088 q 237 1042 203 1088 q 239 1023 239 1031 q 155 974 239 985 l 134 974 q 85 1001 85 986 q 136 1088 85 1075 l 144 1088 z "},"":{"ha":1135,"x_min":0,"x_max":0,"o":""},"":{"ha":439,"x_min":0,"x_max":0,"o":""},"":{"ha":640,"x_min":0,"x_max":0,"o":""},"":{"ha":688,"x_min":0,"x_max":0,"o":""},"":{"ha":1135,"x_min":0,"x_max":0,"o":""},"":{"ha":454,"x_min":0,"x_max":0,"o":""},"":{"ha":457,"x_min":0,"x_max":0,"o":""},"":{"ha":688,"x_min":0,"x_max":0,"o":""},"":{"ha":688,"x_min":0,"x_max":0,"o":""},"":{"ha":688,"x_min":0,"x_max":0,"o":""},"":{"ha":477,"x_min":94,"x_max":382,"o":"m 376 1284 l 376 1281 q 382 1159 382 1171 l 371 1159 l 352 1162 q 97 937 168 937 l 94 937 q 216 1126 115 1006 q 376 1284 357 1277 z "},"":{"ha":800,"x_min":0,"x_max":0,"o":""},"":{"ha":694,"x_min":0,"x_max":0,"o":""},"":{"ha":345,"x_min":0,"x_max":0,"o":""},"":{"ha":348,"x_min":85,"x_max":263,"o":"m 130 38 q 152 16 152 29 l 152 5 l 173 5 q 182 -35 178 5 q 177 -107 182 -54 l 195 -107 q 254 -161 236 -107 q 263 -186 258 -161 l 263 -193 q 200 -306 263 -279 q 180 -308 188 -308 l 178 -308 q 105 -245 126 -308 q 85 -205 99 -231 q 91 -200 85 -203 l 100 -200 q 170 -256 113 -200 q 205 -195 205 -220 l 205 -175 l 195 -175 q 125 -116 125 -175 l 125 -96 q 132 2 132 -18 l 132 26 l 130 38 z "},"":{"ha":688,"x_min":0,"x_max":0,"o":""},"":{"ha":487,"x_min":0,"x_max":0,"o":""},"":{"ha":640,"x_min":0,"x_max":0,"o":""},"":{"ha":1158,"x_min":0,"x_max":0,"o":""},"":{"ha":1332,"x_min":0,"x_max":0,"o":""},"":{"ha":1158,"x_min":0,"x_max":0,"o":""},"":{"ha":507,"x_min":0,"x_max":0,"o":""},"":{"ha":747,"x_min":18,"x_max":728,"o":"m 381 1160 l 392 1160 q 544 1062 461 1160 q 598 821 598 997 l 598 699 q 625 194 598 338 l 628 194 q 693 297 644 199 l 701 305 l 728 305 l 728 302 q 544 -53 709 203 q 479 -243 484 -173 q 465 -278 473 -278 q 452 -283 456 -283 l 452 -281 q 444 -115 444 -208 l 444 -99 q 487 -15 444 -92 q 528 178 522 131 q 511 517 511 448 l 511 541 q 221 571 288 566 q 151 479 159 571 q 132 210 151 387 q 151 137 151 148 q 88 -129 151 126 q 85 -153 85 -139 q 102 -283 102 -250 l 102 -292 l 99 -292 q 37 -159 37 -247 q 18 69 18 -36 l 18 72 q 45 189 18 90 l 45 357 l 91 764 q 110 812 91 812 q 221 1067 191 1022 q 381 1160 286 1160 m 180 666 l 183 666 l 492 639 l 492 642 q 500 880 492 675 q 419 1029 500 989 q 384 1035 395 1035 l 376 1035 q 283 972 307 1035 q 186 680 186 783 q 180 666 180 680 m 321 886 q 378 837 362 886 q 332 791 371 791 q 316 788 332 788 q 292 810 292 788 l 292 856 q 321 886 296 886 m 186 1569 q 347 1411 205 1562 q 469 1221 448 1291 l 466 1221 q 211 1447 396 1221 l 192 1444 l 181 1444 q 186 1566 181 1455 l 186 1569 z "},"":{"ha":747,"x_min":18,"x_max":728,"o":"m 381 1160 l 392 1160 q 544 1062 461 1160 q 598 821 598 997 l 598 699 q 625 194 598 338 l 628 194 q 693 297 644 199 l 701 305 l 728 305 l 728 302 q 544 -53 709 203 q 479 -243 484 -173 q 465 -278 473 -278 q 452 -283 456 -283 l 452 -281 q 444 -115 444 -208 l 444 -99 q 487 -15 444 -92 q 528 178 522 131 q 511 517 511 448 l 511 541 q 221 571 288 566 q 151 479 159 571 q 132 210 151 387 q 151 137 151 148 q 88 -129 151 126 q 85 -153 85 -139 q 102 -283 102 -250 l 102 -292 l 99 -292 q 37 -159 37 -247 q 18 69 18 -36 l 18 72 q 45 189 18 90 l 45 357 l 91 764 q 110 812 91 812 q 221 1067 191 1022 q 381 1160 286 1160 m 180 666 l 183 666 l 492 639 l 492 642 q 500 880 492 675 q 419 1029 500 989 q 384 1035 395 1035 l 376 1035 q 283 972 307 1035 q 186 680 186 783 q 180 666 180 680 m 321 886 q 378 837 362 886 q 332 791 371 791 q 316 788 332 788 q 292 810 292 788 l 292 856 q 321 886 296 886 m 559 1562 l 559 1559 q 565 1437 565 1449 l 554 1437 l 535 1440 q 280 1215 350 1215 l 277 1215 q 399 1404 298 1284 q 559 1562 541 1555 z "},"":{"ha":747,"x_min":18,"x_max":728,"o":"m 381 1160 l 392 1160 q 544 1062 461 1160 q 598 821 598 997 l 598 699 q 625 194 598 338 l 628 194 q 693 297 644 199 l 701 305 l 728 305 l 728 302 q 544 -53 709 203 q 479 -243 484 -173 q 465 -278 473 -278 q 452 -283 456 -283 l 452 -281 q 444 -115 444 -208 l 444 -99 q 487 -15 444 -92 q 528 178 522 131 q 511 517 511 448 l 511 541 q 221 571 288 566 q 151 479 159 571 q 132 210 151 387 q 151 137 151 148 q 88 -129 151 126 q 85 -153 85 -139 q 102 -283 102 -250 l 102 -292 l 99 -292 q 37 -159 37 -247 q 18 69 18 -36 l 18 72 q 45 189 18 90 l 45 357 l 91 764 q 110 812 91 812 q 221 1067 191 1022 q 381 1160 286 1160 m 180 666 l 183 666 l 492 639 l 492 642 q 500 880 492 675 q 419 1029 500 989 q 384 1035 395 1035 l 376 1035 q 283 972 307 1035 q 186 680 186 783 q 180 666 180 680 m 321 886 q 378 837 362 886 q 332 791 371 791 q 316 788 332 788 q 292 810 292 788 l 292 856 q 321 886 296 886 m 425 1781 l 427 1781 l 427 1773 q 422 1699 422 1721 q 560 1415 422 1586 q 614 1222 603 1398 q 587 1211 614 1217 q 444 1455 587 1295 q 403 1515 440 1463 q 297 1333 356 1463 q 210 1257 276 1299 q 142 1160 170 1235 l 142 1154 l 137 1154 q 132 1160 132 1154 l 132 1176 q 180 1317 132 1185 q 197 1401 191 1341 q 338 1602 220 1456 q 425 1781 387 1693 z "},"":{"ha":747,"x_min":18,"x_max":728,"o":"m 381 1160 l 392 1160 q 544 1062 461 1160 q 598 821 598 997 l 598 699 q 625 194 598 338 l 628 194 q 693 297 644 199 l 701 305 l 728 305 l 728 302 q 544 -53 709 203 q 479 -243 484 -173 q 465 -278 473 -278 q 452 -283 456 -283 l 452 -281 q 444 -115 444 -208 l 444 -99 q 487 -15 444 -92 q 528 178 522 131 q 511 517 511 448 l 511 541 q 221 571 288 566 q 151 479 159 571 q 132 210 151 387 q 151 137 151 148 q 88 -129 151 126 q 85 -153 85 -139 q 102 -283 102 -250 l 102 -292 l 99 -292 q 37 -159 37 -247 q 18 69 18 -36 l 18 72 q 45 189 18 90 l 45 357 l 91 764 q 110 812 91 812 q 221 1067 191 1022 q 381 1160 286 1160 m 180 666 l 183 666 l 492 639 l 492 642 q 500 880 492 675 q 419 1029 500 989 q 384 1035 395 1035 l 376 1035 q 283 972 307 1035 q 186 680 186 783 q 180 666 180 680 m 321 886 q 378 837 362 886 q 332 791 371 791 q 316 788 332 788 q 292 810 292 788 l 292 856 q 321 886 296 886 m 438 1578 l 441 1578 q 587 1502 526 1578 q 612 1423 612 1466 l 612 1391 q 536 1315 612 1356 q 517 1310 530 1315 q 340 1418 404 1310 q 286 1461 313 1461 l 281 1461 q 235 1432 235 1454 q 210 1272 229 1381 q 227 1215 213 1253 l 202 1215 q 134 1367 163 1251 l 134 1394 q 227 1527 134 1479 q 259 1532 245 1532 l 267 1532 q 430 1407 330 1532 q 484 1380 465 1380 q 544 1437 509 1380 l 544 1442 q 438 1567 534 1470 l 438 1578 z "},"":{"ha":747,"x_min":18,"x_max":728,"o":"m 381 1160 l 392 1160 q 544 1062 461 1160 q 598 821 598 997 l 598 699 q 625 194 598 338 l 628 194 q 693 297 644 199 l 701 305 l 728 305 l 728 302 q 544 -53 709 203 q 479 -243 484 -173 q 465 -278 473 -278 q 452 -283 456 -283 l 452 -281 q 444 -115 444 -208 l 444 -99 q 487 -15 444 -92 q 528 178 522 131 q 511 517 511 448 l 511 541 q 221 571 288 566 q 151 479 159 571 q 132 210 151 387 q 151 137 151 148 q 88 -129 151 126 q 85 -153 85 -139 q 102 -283 102 -250 l 102 -292 l 99 -292 q 37 -159 37 -247 q 18 69 18 -36 l 18 72 q 45 189 18 90 l 45 357 l 91 764 q 110 812 91 812 q 221 1067 191 1022 q 381 1160 286 1160 m 180 666 l 183 666 l 492 639 l 492 642 q 500 880 492 675 q 419 1029 500 989 q 384 1035 395 1035 l 376 1035 q 283 972 307 1035 q 186 680 186 783 q 180 666 180 680 m 321 886 q 378 837 362 886 q 332 791 371 791 q 316 788 332 788 q 292 810 292 788 l 292 856 q 321 886 296 886 m 538 1379 q 631 1339 589 1379 l 631 1309 q 614 1257 625 1257 q 582 1252 595 1252 l 557 1252 q 481 1314 513 1252 l 481 1328 q 530 1379 481 1357 l 538 1379 m 175 1366 q 267 1320 233 1366 q 270 1301 270 1309 q 186 1252 270 1263 l 164 1252 q 115 1279 115 1264 q 167 1366 115 1353 l 175 1366 z "},"":{"ha":747,"x_min":18,"x_max":728,"o":"m 381 1160 l 392 1160 q 544 1062 461 1160 q 598 821 598 997 l 598 699 q 625 194 598 338 l 628 194 q 693 297 644 199 l 701 305 l 728 305 l 728 302 q 544 -53 709 203 q 479 -243 484 -173 q 465 -278 473 -278 q 452 -283 456 -283 l 452 -281 q 444 -115 444 -208 l 444 -99 q 487 -15 444 -92 q 528 178 522 131 q 511 517 511 448 l 511 541 q 221 571 288 566 q 151 479 159 571 q 132 210 151 387 q 151 137 151 148 q 88 -129 151 126 q 85 -153 85 -139 q 102 -283 102 -250 l 102 -292 l 99 -292 q 37 -159 37 -247 q 18 69 18 -36 l 18 72 q 45 189 18 90 l 45 357 l 91 764 q 110 812 91 812 q 221 1067 191 1022 q 381 1160 286 1160 m 180 666 l 183 666 l 492 639 l 492 642 q 500 880 492 675 q 419 1029 500 989 q 384 1035 395 1035 l 376 1035 q 283 972 307 1035 q 186 680 186 783 q 180 666 180 680 m 321 886 q 378 837 362 886 q 332 791 371 791 q 316 788 332 788 q 292 810 292 788 l 292 856 q 321 886 296 886 m 372 1499 l 377 1499 q 491 1415 448 1499 q 494 1401 494 1410 l 494 1377 q 385 1287 494 1312 l 345 1287 q 252 1379 252 1299 l 252 1404 q 328 1491 252 1456 q 372 1499 346 1499 m 320 1382 q 366 1347 320 1347 q 418 1404 418 1364 l 418 1407 q 382 1436 418 1430 l 380 1436 q 320 1382 320 1423 z "},"":{"ha":1436,"x_min":0,"x_max":0,"o":""},"":{"ha":809,"x_min":57,"x_max":751,"o":"m 345 602 q 399 540 399 589 l 399 531 q 339 463 399 502 l 323 460 l 317 460 q 258 549 288 460 q 345 602 319 602 m 361 -24 q 130 146 237 -5 q 84 324 84 229 q 65 334 65 328 l 65 340 q 57 512 65 366 q 163 873 57 693 q 437 1095 263 1031 q 597 1122 500 1114 q 673 1172 627 1136 l 675 1172 q 616 1088 675 1141 q 583 968 583 1020 l 583 956 q 600 879 583 924 l 570 879 q 521 1021 541 1021 q 307 861 450 1021 q 155 506 155 659 l 155 491 q 222 204 155 415 q 434 96 299 123 l 448 93 q 667 324 572 93 q 694 460 694 405 l 694 494 l 722 494 q 713 401 722 485 q 732 361 732 376 q 705 254 727 331 l 705 198 q 738 53 705 86 q 751 22 751 33 l 732 16 q 662 50 719 16 l 656 50 q 412 -26 486 -21 q 412 -35 412 -31 q 407 -107 412 -54 l 425 -107 q 484 -161 466 -107 q 493 -186 488 -161 l 493 -193 q 430 -306 493 -279 q 410 -308 418 -308 l 408 -308 q 335 -245 356 -308 q 315 -205 329 -231 q 321 -200 315 -203 l 330 -200 q 399 -256 342 -200 q 435 -195 435 -220 l 435 -175 l 425 -175 q 355 -116 355 -175 l 355 -96 q 361 -24 359 -50 z "},"":{"ha":751,"x_min":-5,"x_max":755,"o":"m 20 1162 l 22 1162 q 288 1078 43 1162 l 294 1078 q 755 1116 686 1105 l 755 1114 q 633 975 642 1019 q 587 916 614 932 l 584 916 q 576 1005 576 993 l 576 1019 q 215 1000 290 1000 q 199 962 199 965 q 223 633 223 844 l 223 631 q 315 609 243 631 q 717 604 629 604 q 597 528 661 561 q 570 517 578 517 q 234 536 473 517 q 215 514 218 536 l 215 129 q 380 91 254 91 l 456 91 q 703 186 651 91 q 730 216 726 216 q 736 210 736 215 l 736 194 q 668 53 736 178 q 649 12 652 12 l 611 12 q 342 18 563 12 q 60 -34 189 18 l 33 -34 l 33 -7 q 128 132 128 83 l 128 186 q 120 240 128 216 l 115 237 q 109 243 109 237 l 109 248 q 128 327 109 258 q 109 359 128 336 l 109 370 q 128 408 109 380 q 120 495 123 425 q 139 661 139 600 q 147 699 147 681 q 115 929 115 905 q 82 1059 115 975 l -2 1138 l -5 1152 l -5 1154 q 20 1162 15 1162 m 189 1569 q 349 1411 208 1562 q 471 1221 450 1291 l 468 1221 q 213 1447 398 1221 l 194 1444 l 183 1444 q 189 1566 183 1455 l 189 1569 z "},"":{"ha":751,"x_min":-5,"x_max":755,"o":"m 20 1162 l 22 1162 q 288 1078 43 1162 l 294 1078 q 755 1116 686 1105 l 755 1114 q 633 975 642 1019 q 587 916 614 932 l 584 916 q 576 1005 576 993 l 576 1019 q 215 1000 290 1000 q 199 962 199 965 q 223 633 223 844 l 223 631 q 315 609 243 631 q 717 604 629 604 q 597 528 661 561 q 570 517 578 517 q 234 536 473 517 q 215 514 218 536 l 215 129 q 380 91 254 91 l 456 91 q 703 186 651 91 q 730 216 726 216 q 736 210 736 215 l 736 194 q 668 53 736 178 q 649 12 652 12 l 611 12 q 342 18 563 12 q 60 -34 189 18 l 33 -34 l 33 -7 q 128 132 128 83 l 128 186 q 120 240 128 216 l 115 237 q 109 243 109 237 l 109 248 q 128 327 109 258 q 109 359 128 336 l 109 370 q 128 408 109 380 q 120 495 123 425 q 139 661 139 600 q 147 699 147 681 q 115 929 115 905 q 82 1059 115 975 l -2 1138 l -5 1152 l -5 1154 q 20 1162 15 1162 m 562 1562 l 562 1559 q 567 1437 567 1449 l 556 1437 l 537 1440 q 282 1215 352 1215 l 279 1215 q 401 1404 300 1284 q 562 1562 543 1555 z "},"":{"ha":751,"x_min":-5,"x_max":755,"o":"m 20 1162 l 22 1162 q 288 1078 43 1162 l 294 1078 q 755 1116 686 1105 l 755 1114 q 633 975 642 1019 q 587 916 614 932 l 584 916 q 576 1005 576 993 l 576 1019 q 215 1000 290 1000 q 199 962 199 965 q 223 633 223 844 l 223 631 q 315 609 243 631 q 717 604 629 604 q 597 528 661 561 q 570 517 578 517 q 234 536 473 517 q 215 514 218 536 l 215 129 q 380 91 254 91 l 456 91 q 703 186 651 91 q 730 216 726 216 q 736 210 736 215 l 736 194 q 668 53 736 178 q 649 12 652 12 l 611 12 q 342 18 563 12 q 60 -34 189 18 l 33 -34 l 33 -7 q 128 132 128 83 l 128 186 q 120 240 128 216 l 115 237 q 109 243 109 237 l 109 248 q 128 327 109 258 q 109 359 128 336 l 109 370 q 128 408 109 380 q 120 495 123 425 q 139 661 139 600 q 147 699 147 681 q 115 929 115 905 q 82 1059 115 975 l -2 1138 l -5 1152 l -5 1154 q 20 1162 15 1162 m 427 1781 l 429 1781 l 429 1773 q 424 1699 424 1721 q 562 1415 424 1586 q 616 1222 605 1398 q 589 1211 616 1217 q 446 1455 589 1295 q 405 1515 442 1463 q 299 1333 358 1463 q 212 1257 278 1299 q 144 1160 172 1235 l 144 1154 l 139 1154 q 134 1160 134 1154 l 134 1176 q 182 1317 134 1185 q 199 1401 193 1341 q 340 1602 222 1456 q 427 1781 389 1693 z "},"":{"ha":751,"x_min":-5,"x_max":755,"o":"m 20 1162 l 22 1162 q 288 1078 43 1162 l 294 1078 q 755 1116 686 1105 l 755 1114 q 633 975 642 1019 q 587 916 614 932 l 584 916 q 576 1005 576 993 l 576 1019 q 215 1000 290 1000 q 199 962 199 965 q 223 633 223 844 l 223 631 q 315 609 243 631 q 717 604 629 604 q 597 528 661 561 q 570 517 578 517 q 234 536 473 517 q 215 514 218 536 l 215 129 q 380 91 254 91 l 456 91 q 703 186 651 91 q 730 216 726 216 q 736 210 736 215 l 736 194 q 668 53 736 178 q 649 12 652 12 l 611 12 q 342 18 563 12 q 60 -34 189 18 l 33 -34 l 33 -7 q 128 132 128 83 l 128 186 q 120 240 128 216 l 115 237 q 109 243 109 237 l 109 248 q 128 327 109 258 q 109 359 128 336 l 109 370 q 128 408 109 380 q 120 495 123 425 q 139 661 139 600 q 147 699 147 681 q 115 929 115 905 q 82 1059 115 975 l -2 1138 l -5 1152 l -5 1154 q 20 1162 15 1162 m 541 1379 q 633 1339 591 1379 l 633 1309 q 616 1257 627 1257 q 584 1252 597 1252 l 559 1252 q 484 1314 515 1252 l 484 1328 q 532 1379 484 1357 l 541 1379 m 177 1366 q 269 1320 235 1366 q 272 1301 272 1309 q 188 1252 272 1263 l 166 1252 q 117 1279 117 1264 q 169 1366 117 1353 l 177 1366 z "},"":{"ha":809,"x_min":16,"x_max":792,"o":"m 347 1221 l 377 1221 l 374 1199 l 374 1187 q 469 1139 374 1139 q 675 1101 675 1132 q 708 903 708 951 l 705 903 q 659 991 686 924 q 537 1042 618 1029 l 518 1045 q 423 1032 439 1032 l 423 1029 q 420 868 420 926 q 461 43 420 446 l 526 43 q 770 112 742 56 l 789 118 l 792 118 l 792 112 q 757 -93 792 68 l 754 -93 q 722 -58 726 -58 l 624 -49 q 467 -58 496 -58 l 464 -58 q 439 -87 462 -58 l 442 -118 l 442 -146 l 415 -146 q 326 -71 415 -71 l 301 -71 q 81 -102 229 -71 l 81 -99 q 16 74 81 -71 l 16 115 q 258 20 93 20 l 260 20 q 374 43 308 20 l 374 45 q 336 623 336 207 l 336 787 q 309 1032 336 899 q 190 1045 300 1032 q 119 988 136 1045 l 111 935 q 84 1026 84 954 q 43 1149 84 1088 q 41 1162 43 1156 q 62 1168 51 1168 q 103 1137 71 1168 q 111 1133 106 1137 q 163 1155 119 1133 q 307 1133 182 1155 q 350 1196 350 1133 q 347 1221 347 1213 m 627 728 l 651 728 l 651 718 l 648 701 q 692 655 648 674 q 708 619 708 639 l 708 608 q 648 556 708 569 q 613 665 613 568 l 613 676 q 627 728 615 728 m 218 1569 q 378 1411 237 1562 q 500 1221 479 1291 l 497 1221 q 242 1447 427 1221 l 223 1444 l 212 1444 q 218 1566 212 1455 l 218 1569 z "},"":{"ha":809,"x_min":16,"x_max":792,"o":"m 347 1221 l 377 1221 l 374 1199 l 374 1187 q 469 1139 374 1139 q 675 1101 675 1132 q 708 903 708 951 l 705 903 q 659 991 686 924 q 537 1042 618 1029 l 518 1045 q 423 1032 439 1032 l 423 1029 q 420 868 420 926 q 461 43 420 446 l 526 43 q 770 112 742 56 l 789 118 l 792 118 l 792 112 q 757 -93 792 68 l 754 -93 q 722 -58 726 -58 l 624 -49 q 467 -58 496 -58 l 464 -58 q 439 -87 462 -58 l 442 -118 l 442 -146 l 415 -146 q 326 -71 415 -71 l 301 -71 q 81 -102 229 -71 l 81 -99 q 16 74 81 -71 l 16 115 q 258 20 93 20 l 260 20 q 374 43 308 20 l 374 45 q 336 623 336 207 l 336 787 q 309 1032 336 899 q 190 1045 300 1032 q 119 988 136 1045 l 111 935 q 84 1026 84 954 q 43 1149 84 1088 q 41 1162 43 1156 q 62 1168 51 1168 q 103 1137 71 1168 q 111 1133 106 1137 q 163 1155 119 1133 q 307 1133 182 1155 q 350 1196 350 1133 q 347 1221 347 1213 m 627 728 l 651 728 l 651 718 l 648 701 q 692 655 648 674 q 708 619 708 639 l 708 608 q 648 556 708 569 q 613 665 613 568 l 613 676 q 627 728 615 728 m 591 1562 l 591 1559 q 596 1437 596 1449 l 585 1437 l 566 1440 q 311 1215 381 1215 l 309 1215 q 431 1404 329 1284 q 591 1562 572 1555 z "},"":{"ha":809,"x_min":16,"x_max":792,"o":"m 347 1221 l 377 1221 l 374 1199 l 374 1187 q 469 1139 374 1139 q 675 1101 675 1132 q 708 903 708 951 l 705 903 q 659 991 686 924 q 537 1042 618 1029 l 518 1045 q 423 1032 439 1032 l 423 1029 q 420 868 420 926 q 461 43 420 446 l 526 43 q 770 112 742 56 l 789 118 l 792 118 l 792 112 q 757 -93 792 68 l 754 -93 q 722 -58 726 -58 l 624 -49 q 467 -58 496 -58 l 464 -58 q 439 -87 462 -58 l 442 -118 l 442 -146 l 415 -146 q 326 -71 415 -71 l 301 -71 q 81 -102 229 -71 l 81 -99 q 16 74 81 -71 l 16 115 q 258 20 93 20 l 260 20 q 374 43 308 20 l 374 45 q 336 623 336 207 l 336 787 q 309 1032 336 899 q 190 1045 300 1032 q 119 988 136 1045 l 111 935 q 84 1026 84 954 q 43 1149 84 1088 q 41 1162 43 1156 q 62 1168 51 1168 q 103 1137 71 1168 q 111 1133 106 1137 q 163 1155 119 1133 q 307 1133 182 1155 q 350 1196 350 1133 q 347 1221 347 1213 m 627 728 l 651 728 l 651 718 l 648 701 q 692 655 648 674 q 708 619 708 639 l 708 608 q 648 556 708 569 q 613 665 613 568 l 613 676 q 627 728 615 728 m 456 1788 l 458 1788 l 458 1780 q 453 1706 453 1727 q 591 1421 453 1593 q 646 1229 634 1404 q 618 1218 646 1224 q 475 1462 618 1301 q 434 1522 471 1470 q 328 1340 387 1470 q 241 1264 307 1306 q 174 1166 201 1242 l 174 1161 l 168 1161 q 163 1166 163 1161 l 163 1183 q 212 1324 163 1192 q 228 1408 222 1348 q 369 1609 252 1463 q 456 1788 418 1699 z "},"":{"ha":809,"x_min":16,"x_max":792,"o":"m 347 1221 l 377 1221 l 374 1199 l 374 1187 q 469 1139 374 1139 q 675 1101 675 1132 q 708 903 708 951 l 705 903 q 659 991 686 924 q 537 1042 618 1029 l 518 1045 q 423 1032 439 1032 l 423 1029 q 420 868 420 926 q 461 43 420 446 l 526 43 q 770 112 742 56 l 789 118 l 792 118 l 792 112 q 757 -93 792 68 l 754 -93 q 722 -58 726 -58 l 624 -49 q 467 -58 496 -58 l 464 -58 q 439 -87 462 -58 l 442 -118 l 442 -146 l 415 -146 q 326 -71 415 -71 l 301 -71 q 81 -102 229 -71 l 81 -99 q 16 74 81 -71 l 16 115 q 258 20 93 20 l 260 20 q 374 43 308 20 l 374 45 q 336 623 336 207 l 336 787 q 309 1032 336 899 q 190 1045 300 1032 q 119 988 136 1045 l 111 935 q 84 1026 84 954 q 43 1149 84 1088 q 41 1162 43 1156 q 62 1168 51 1168 q 103 1137 71 1168 q 111 1133 106 1137 q 163 1155 119 1133 q 307 1133 182 1155 q 350 1196 350 1133 q 347 1221 347 1213 m 627 728 l 651 728 l 651 718 l 648 701 q 692 655 648 674 q 708 619 708 639 l 708 608 q 648 556 708 569 q 613 665 613 568 l 613 676 q 627 728 615 728 m 570 1379 q 662 1339 620 1379 l 662 1309 q 646 1257 656 1257 q 613 1252 627 1252 l 589 1252 q 513 1314 544 1252 l 513 1328 q 562 1379 513 1357 l 570 1379 m 206 1366 q 298 1320 264 1366 q 301 1301 301 1309 q 217 1252 301 1263 l 195 1252 q 146 1279 146 1264 q 198 1366 146 1353 l 206 1366 z "},"":{"ha":1029,"x_min":0,"x_max":0,"o":""},"":{"ha":824,"x_min":3,"x_max":820,"o":"m 3 1236 q 191 1103 62 1187 q 408 864 347 955 q 565 688 504 751 q 695 582 640 618 l 695 585 q 687 994 687 852 q 603 1165 687 1033 l 603 1195 q 747 1057 669 1143 q 814 1133 793 1114 q 820 1127 820 1132 l 820 1111 q 816 994 820 1098 q 812 859 812 890 l 812 837 q 801 465 812 687 q 782 243 801 414 l 782 -20 q 715 -279 782 -31 l 668 -20 l 663 -4 q 687 335 667 -4 q 435 658 687 496 q 277 785 349 712 q 261 750 261 760 l 280 -31 q 258 -216 258 -71 l 258 -243 q 269 -327 258 -267 q 245 -332 252 -332 l 239 -332 l 239 -330 q 210 -118 229 -153 q 131 -42 188 -42 q 109 -28 109 -32 q 177 237 177 35 q 182 286 182 237 l 166 601 l 182 810 q 120 1065 182 875 q 9 1222 119 1080 q 3 1233 9 1226 l 3 1236 m 477 1578 l 479 1578 q 626 1502 565 1578 q 650 1423 650 1466 l 650 1391 q 574 1315 650 1356 q 555 1310 569 1315 q 379 1418 443 1310 q 325 1461 351 1461 l 319 1461 q 273 1432 273 1454 q 249 1272 268 1381 q 265 1215 252 1253 l 241 1215 q 173 1367 202 1251 l 173 1394 q 265 1527 173 1479 q 298 1532 284 1532 l 306 1532 q 469 1407 369 1532 q 523 1380 503 1380 q 583 1437 547 1380 l 583 1442 q 477 1567 573 1470 l 477 1578 z "},"":{"ha":952,"x_min":7,"x_max":945,"o":"m 492 1158 q 796 903 669 1158 q 837 627 837 813 q 842 505 837 614 q 924 616 887 552 q 945 605 944 612 q 837 345 890 517 q 688 46 763 91 q 555 0 629 0 l 506 0 q 205 174 357 0 q 102 442 102 328 l 83 518 q 18 415 18 429 q 7 453 9 415 l 7 491 q 28 646 16 646 q 99 757 49 682 q 175 974 120 801 q 267 1090 228 1090 q 492 1158 398 1158 m 235 865 l 235 857 l 248 865 q 254 860 254 865 l 254 857 q 221 800 254 851 q 194 651 194 745 q 186 640 191 651 q 370 136 186 248 q 498 103 437 103 q 609 133 543 103 q 704 285 704 187 l 704 355 q 736 456 704 413 l 736 722 q 718 776 736 730 q 620 1009 718 916 q 500 1053 563 1053 q 273 958 363 1053 q 240 879 251 930 q 235 865 235 879 m 427 608 q 481 572 481 602 l 481 567 q 449 524 481 538 q 425 521 434 521 l 414 521 q 376 556 376 530 l 376 564 q 427 608 376 599 m 290 1569 q 450 1411 309 1562 q 572 1221 551 1291 l 569 1221 q 314 1447 499 1221 l 295 1444 l 284 1444 q 290 1566 284 1455 l 290 1569 z "},"":{"ha":952,"x_min":7,"x_max":945,"o":"m 492 1158 q 796 903 669 1158 q 837 627 837 813 q 842 505 837 614 q 924 616 887 552 q 945 605 944 612 q 837 345 890 517 q 688 46 763 91 q 555 0 629 0 l 506 0 q 205 174 357 0 q 102 442 102 328 l 83 518 q 18 415 18 429 q 7 453 9 415 l 7 491 q 28 646 16 646 q 99 757 49 682 q 175 974 120 801 q 267 1090 228 1090 q 492 1158 398 1158 m 235 865 l 235 857 l 248 865 q 254 860 254 865 l 254 857 q 221 800 254 851 q 194 651 194 745 q 186 640 191 651 q 370 136 186 248 q 498 103 437 103 q 609 133 543 103 q 704 285 704 187 l 704 355 q 736 456 704 413 l 736 722 q 718 776 736 730 q 620 1009 718 916 q 500 1053 563 1053 q 273 958 363 1053 q 240 879 251 930 q 235 865 235 879 m 427 608 q 481 572 481 602 l 481 567 q 449 524 481 538 q 425 521 434 521 l 414 521 q 376 556 376 530 l 376 564 q 427 608 376 599 m 663 1562 l 663 1559 q 668 1437 668 1449 l 657 1437 l 638 1440 q 383 1215 453 1215 l 380 1215 q 503 1404 401 1284 q 663 1562 644 1555 z "},"":{"ha":952,"x_min":7,"x_max":945,"o":"m 492 1158 q 796 903 669 1158 q 837 627 837 813 q 842 505 837 614 q 924 616 887 552 q 945 605 944 612 q 837 345 890 517 q 688 46 763 91 q 555 0 629 0 l 506 0 q 205 174 357 0 q 102 442 102 328 l 83 518 q 18 415 18 429 q 7 453 9 415 l 7 491 q 28 646 16 646 q 99 757 49 682 q 175 974 120 801 q 267 1090 228 1090 q 492 1158 398 1158 m 235 865 l 235 857 l 248 865 q 254 860 254 865 l 254 857 q 221 800 254 851 q 194 651 194 745 q 186 640 191 651 q 370 136 186 248 q 498 103 437 103 q 609 133 543 103 q 704 285 704 187 l 704 355 q 736 456 704 413 l 736 722 q 718 776 736 730 q 620 1009 718 916 q 500 1053 563 1053 q 273 958 363 1053 q 240 879 251 930 q 235 865 235 879 m 427 608 q 481 572 481 602 l 481 567 q 449 524 481 538 q 425 521 434 521 l 414 521 q 376 556 376 530 l 376 564 q 427 608 376 599 m 528 1781 l 530 1781 l 530 1773 q 525 1699 525 1721 q 663 1415 525 1586 q 718 1222 706 1398 q 690 1211 718 1217 q 547 1455 690 1295 q 506 1515 543 1463 q 400 1333 459 1463 q 313 1257 379 1299 q 245 1160 273 1235 l 245 1154 l 240 1154 q 235 1160 235 1154 l 235 1176 q 283 1317 235 1185 q 300 1401 294 1341 q 441 1602 323 1456 q 528 1781 490 1693 z "},"":{"ha":952,"x_min":7,"x_max":945,"o":"m 492 1158 q 796 903 669 1158 q 837 627 837 813 q 842 505 837 614 q 924 616 887 552 q 945 605 944 612 q 837 345 890 517 q 688 46 763 91 q 555 0 629 0 l 506 0 q 205 174 357 0 q 102 442 102 328 l 83 518 q 18 415 18 429 q 7 453 9 415 l 7 491 q 28 646 16 646 q 99 757 49 682 q 175 974 120 801 q 267 1090 228 1090 q 492 1158 398 1158 m 235 865 l 235 857 l 248 865 q 254 860 254 865 l 254 857 q 221 800 254 851 q 194 651 194 745 q 186 640 191 651 q 370 136 186 248 q 498 103 437 103 q 609 133 543 103 q 704 285 704 187 l 704 355 q 736 456 704 413 l 736 722 q 718 776 736 730 q 620 1009 718 916 q 500 1053 563 1053 q 273 958 363 1053 q 240 879 251 930 q 235 865 235 879 m 427 608 q 481 572 481 602 l 481 567 q 449 524 481 538 q 425 521 434 521 l 414 521 q 376 556 376 530 l 376 564 q 427 608 376 599 m 541 1578 l 544 1578 q 690 1502 629 1578 q 715 1423 715 1466 l 715 1391 q 639 1315 715 1356 q 620 1310 633 1315 q 444 1418 507 1310 q 389 1461 416 1461 l 384 1461 q 338 1432 338 1454 q 313 1272 332 1381 q 330 1215 316 1253 l 305 1215 q 237 1367 267 1251 l 237 1394 q 330 1527 237 1479 q 362 1532 349 1532 l 370 1532 q 533 1407 433 1532 q 587 1380 568 1380 q 647 1437 612 1380 l 647 1442 q 541 1567 637 1470 l 541 1578 z "},"":{"ha":952,"x_min":7,"x_max":945,"o":"m 492 1158 q 796 903 669 1158 q 837 627 837 813 q 842 505 837 614 q 924 616 887 552 q 945 605 944 612 q 837 345 890 517 q 688 46 763 91 q 555 0 629 0 l 506 0 q 205 174 357 0 q 102 442 102 328 l 83 518 q 18 415 18 429 q 7 453 9 415 l 7 491 q 28 646 16 646 q 99 757 49 682 q 175 974 120 801 q 267 1090 228 1090 q 492 1158 398 1158 m 235 865 l 235 857 l 248 865 q 254 860 254 865 l 254 857 q 221 800 254 851 q 194 651 194 745 q 186 640 191 651 q 370 136 186 248 q 498 103 437 103 q 609 133 543 103 q 704 285 704 187 l 704 355 q 736 456 704 413 l 736 722 q 718 776 736 730 q 620 1009 718 916 q 500 1053 563 1053 q 273 958 363 1053 q 240 879 251 930 q 235 865 235 879 m 427 608 q 481 572 481 602 l 481 567 q 449 524 481 538 q 425 521 434 521 l 414 521 q 376 556 376 530 l 376 564 q 427 608 376 599 m 642 1379 q 734 1339 692 1379 l 734 1309 q 718 1257 728 1257 q 685 1252 699 1252 l 661 1252 q 585 1314 616 1252 l 585 1328 q 633 1379 585 1357 l 642 1379 m 278 1366 q 370 1320 336 1366 q 373 1301 373 1309 q 289 1252 373 1263 l 267 1252 q 218 1279 218 1264 q 270 1366 218 1353 l 278 1366 z "},"":{"ha":688,"x_min":0,"x_max":0,"o":""},"":{"ha":1095,"x_min":0,"x_max":0,"o":""},"":{"ha":812,"x_min":28,"x_max":785,"o":"m 188 1161 l 188 1069 q 245 771 188 1046 q 299 176 264 302 q 443 20 349 20 l 451 20 q 646 273 612 20 q 652 353 652 307 l 652 377 q 619 819 627 819 l 597 889 l 597 901 q 660 1055 597 911 q 663 1067 663 1059 l 663 1104 q 671 1152 663 1131 l 673 1152 q 730 937 692 1088 q 785 922 783 922 l 785 913 q 725 825 725 871 q 722 795 722 814 l 722 783 q 749 410 722 729 l 741 245 l 749 212 q 644 8 749 114 q 489 -62 560 -62 l 448 -62 q 267 54 350 -62 q 201 195 234 98 q 163 414 163 332 l 163 613 q 79 889 163 812 q 28 930 79 892 q 55 946 28 945 q 87 932 62 946 q 101 930 92 930 l 106 930 q 158 1005 140 947 q 161 1022 161 1008 l 161 1034 q 163 1088 161 1056 q 155 1135 155 1120 l 155 1137 q 188 1161 155 1156 m 220 1569 q 380 1411 239 1562 q 502 1221 481 1291 l 499 1221 q 244 1447 429 1221 l 225 1444 l 214 1444 q 220 1566 214 1455 l 220 1569 z "},"":{"ha":812,"x_min":28,"x_max":785,"o":"m 188 1161 l 188 1069 q 245 771 188 1046 q 299 176 264 302 q 443 20 349 20 l 451 20 q 646 273 612 20 q 652 353 652 307 l 652 377 q 619 819 627 819 l 597 889 l 597 901 q 660 1055 597 911 q 663 1067 663 1059 l 663 1104 q 671 1152 663 1131 l 673 1152 q 730 937 692 1088 q 785 922 783 922 l 785 913 q 725 825 725 871 q 722 795 722 814 l 722 783 q 749 410 722 729 l 741 245 l 749 212 q 644 8 749 114 q 489 -62 560 -62 l 448 -62 q 267 54 350 -62 q 201 195 234 98 q 163 414 163 332 l 163 613 q 79 889 163 812 q 28 930 79 892 q 55 946 28 945 q 87 932 62 946 q 101 930 92 930 l 106 930 q 158 1005 140 947 q 161 1022 161 1008 l 161 1034 q 163 1088 161 1056 q 155 1135 155 1120 l 155 1137 q 188 1161 155 1156 m 593 1562 l 593 1559 q 598 1437 598 1449 l 587 1437 l 568 1440 q 313 1215 383 1215 l 311 1215 q 433 1404 331 1284 q 593 1562 574 1555 z "},"":{"ha":812,"x_min":28,"x_max":785,"o":"m 188 1161 l 188 1069 q 245 771 188 1046 q 299 176 264 302 q 443 20 349 20 l 451 20 q 646 273 612 20 q 652 353 652 307 l 652 377 q 619 819 627 819 l 597 889 l 597 901 q 660 1055 597 911 q 663 1067 663 1059 l 663 1104 q 671 1152 663 1131 l 673 1152 q 730 937 692 1088 q 785 922 783 922 l 785 913 q 725 825 725 871 q 722 795 722 814 l 722 783 q 749 410 722 729 l 741 245 l 749 212 q 644 8 749 114 q 489 -62 560 -62 l 448 -62 q 267 54 350 -62 q 201 195 234 98 q 163 414 163 332 l 163 613 q 79 889 163 812 q 28 930 79 892 q 55 946 28 945 q 87 932 62 946 q 101 930 92 930 l 106 930 q 158 1005 140 947 q 161 1022 161 1008 l 161 1034 q 163 1088 161 1056 q 155 1135 155 1120 l 155 1137 q 188 1161 155 1156 m 458 1788 l 460 1788 l 460 1780 q 455 1706 455 1727 q 593 1421 455 1593 q 648 1229 636 1404 q 621 1218 648 1224 q 477 1462 621 1301 q 436 1522 473 1470 q 330 1340 389 1470 q 243 1264 309 1306 q 176 1166 203 1242 l 176 1161 l 170 1161 q 165 1166 165 1161 l 165 1183 q 214 1324 165 1192 q 230 1408 224 1348 q 371 1609 254 1463 q 458 1788 420 1699 z "},"":{"ha":812,"x_min":28,"x_max":785,"o":"m 188 1161 l 188 1069 q 245 771 188 1046 q 299 176 264 302 q 443 20 349 20 l 451 20 q 646 273 612 20 q 652 353 652 307 l 652 377 q 619 819 627 819 l 597 889 l 597 901 q 660 1055 597 911 q 663 1067 663 1059 l 663 1104 q 671 1152 663 1131 l 673 1152 q 730 937 692 1088 q 785 922 783 922 l 785 913 q 725 825 725 871 q 722 795 722 814 l 722 783 q 749 410 722 729 l 741 245 l 749 212 q 644 8 749 114 q 489 -62 560 -62 l 448 -62 q 267 54 350 -62 q 201 195 234 98 q 163 414 163 332 l 163 613 q 79 889 163 812 q 28 930 79 892 q 55 946 28 945 q 87 932 62 946 q 101 930 92 930 l 106 930 q 158 1005 140 947 q 161 1022 161 1008 l 161 1034 q 163 1088 161 1056 q 155 1135 155 1120 l 155 1137 q 188 1161 155 1156 m 572 1379 q 664 1339 622 1379 l 664 1309 q 648 1257 659 1257 q 615 1252 629 1252 l 591 1252 q 515 1314 546 1252 l 515 1328 q 564 1379 515 1357 l 572 1379 m 208 1366 q 300 1320 267 1366 q 303 1301 303 1309 q 219 1252 303 1263 l 197 1252 q 149 1279 149 1264 q 200 1366 149 1353 l 208 1366 z "},"":{"ha":836,"x_min":0,"x_max":0,"o":""},"":{"ha":760,"x_min":0,"x_max":0,"o":""},"":{"ha":848,"x_min":0,"x_max":0,"o":""},"":{"ha":747,"x_min":18,"x_max":728,"o":"m 381 1160 l 392 1160 q 544 1062 461 1160 q 598 821 598 997 l 598 699 q 625 194 598 338 l 628 194 q 693 297 644 199 l 701 305 l 728 305 l 728 302 q 544 -53 709 203 q 479 -243 484 -173 q 465 -278 473 -278 q 452 -283 456 -283 l 452 -281 q 444 -115 444 -208 l 444 -99 q 487 -15 444 -92 q 528 178 522 131 q 511 517 511 448 l 511 541 q 221 571 288 566 q 151 479 159 571 q 132 210 151 387 q 151 137 151 148 q 88 -129 151 126 q 85 -153 85 -139 q 102 -283 102 -250 l 102 -292 l 99 -292 q 37 -159 37 -247 q 18 69 18 -36 l 18 72 q 45 189 18 90 l 45 357 l 91 764 q 110 812 91 812 q 221 1067 191 1022 q 381 1160 286 1160 m 180 666 l 183 666 l 492 639 l 492 642 q 500 880 492 675 q 419 1029 500 989 q 384 1035 395 1035 l 376 1035 q 283 972 307 1035 q 186 680 186 783 q 180 666 180 680 m 321 886 q 378 837 362 886 q 332 791 371 791 q 316 788 332 788 q 292 810 292 788 l 292 856 q 321 886 296 886 m 186 1569 q 347 1411 205 1562 q 469 1221 448 1291 l 466 1221 q 211 1447 396 1221 l 192 1444 l 181 1444 q 186 1566 181 1455 l 186 1569 z "},"":{"ha":747,"x_min":18,"x_max":728,"o":"m 381 1160 l 392 1160 q 544 1062 461 1160 q 598 821 598 997 l 598 699 q 625 194 598 338 l 628 194 q 693 297 644 199 l 701 305 l 728 305 l 728 302 q 544 -53 709 203 q 479 -243 484 -173 q 465 -278 473 -278 q 452 -283 456 -283 l 452 -281 q 444 -115 444 -208 l 444 -99 q 487 -15 444 -92 q 528 178 522 131 q 511 517 511 448 l 511 541 q 221 571 288 566 q 151 479 159 571 q 132 210 151 387 q 151 137 151 148 q 88 -129 151 126 q 85 -153 85 -139 q 102 -283 102 -250 l 102 -292 l 99 -292 q 37 -159 37 -247 q 18 69 18 -36 l 18 72 q 45 189 18 90 l 45 357 l 91 764 q 110 812 91 812 q 221 1067 191 1022 q 381 1160 286 1160 m 180 666 l 183 666 l 492 639 l 492 642 q 500 880 492 675 q 419 1029 500 989 q 384 1035 395 1035 l 376 1035 q 283 972 307 1035 q 186 680 186 783 q 180 666 180 680 m 321 886 q 378 837 362 886 q 332 791 371 791 q 316 788 332 788 q 292 810 292 788 l 292 856 q 321 886 296 886 m 559 1562 l 559 1559 q 565 1437 565 1449 l 554 1437 l 535 1440 q 280 1215 350 1215 l 277 1215 q 399 1404 298 1284 q 559 1562 541 1555 z "},"":{"ha":747,"x_min":18,"x_max":728,"o":"m 381 1160 l 392 1160 q 544 1062 461 1160 q 598 821 598 997 l 598 699 q 625 194 598 338 l 628 194 q 693 297 644 199 l 701 305 l 728 305 l 728 302 q 544 -53 709 203 q 479 -243 484 -173 q 465 -278 473 -278 q 452 -283 456 -283 l 452 -281 q 444 -115 444 -208 l 444 -99 q 487 -15 444 -92 q 528 178 522 131 q 511 517 511 448 l 511 541 q 221 571 288 566 q 151 479 159 571 q 132 210 151 387 q 151 137 151 148 q 88 -129 151 126 q 85 -153 85 -139 q 102 -283 102 -250 l 102 -292 l 99 -292 q 37 -159 37 -247 q 18 69 18 -36 l 18 72 q 45 189 18 90 l 45 357 l 91 764 q 110 812 91 812 q 221 1067 191 1022 q 381 1160 286 1160 m 180 666 l 183 666 l 492 639 l 492 642 q 500 880 492 675 q 419 1029 500 989 q 384 1035 395 1035 l 376 1035 q 283 972 307 1035 q 186 680 186 783 q 180 666 180 680 m 321 886 q 378 837 362 886 q 332 791 371 791 q 316 788 332 788 q 292 810 292 788 l 292 856 q 321 886 296 886 m 425 1781 l 427 1781 l 427 1773 q 422 1699 422 1721 q 560 1415 422 1586 q 614 1222 603 1398 q 587 1211 614 1217 q 444 1455 587 1295 q 403 1515 440 1463 q 297 1333 356 1463 q 210 1257 276 1299 q 142 1160 170 1235 l 142 1154 l 137 1154 q 132 1160 132 1154 l 132 1176 q 180 1317 132 1185 q 197 1401 191 1341 q 338 1602 220 1456 q 425 1781 387 1693 z "},"":{"ha":747,"x_min":18,"x_max":728,"o":"m 381 1160 l 392 1160 q 544 1062 461 1160 q 598 821 598 997 l 598 699 q 625 194 598 338 l 628 194 q 693 297 644 199 l 701 305 l 728 305 l 728 302 q 544 -53 709 203 q 479 -243 484 -173 q 465 -278 473 -278 q 452 -283 456 -283 l 452 -281 q 444 -115 444 -208 l 444 -99 q 487 -15 444 -92 q 528 178 522 131 q 511 517 511 448 l 511 541 q 221 571 288 566 q 151 479 159 571 q 132 210 151 387 q 151 137 151 148 q 88 -129 151 126 q 85 -153 85 -139 q 102 -283 102 -250 l 102 -292 l 99 -292 q 37 -159 37 -247 q 18 69 18 -36 l 18 72 q 45 189 18 90 l 45 357 l 91 764 q 110 812 91 812 q 221 1067 191 1022 q 381 1160 286 1160 m 180 666 l 183 666 l 492 639 l 492 642 q 500 880 492 675 q 419 1029 500 989 q 384 1035 395 1035 l 376 1035 q 283 972 307 1035 q 186 680 186 783 q 180 666 180 680 m 321 886 q 378 837 362 886 q 332 791 371 791 q 316 788 332 788 q 292 810 292 788 l 292 856 q 321 886 296 886 m 438 1578 l 441 1578 q 587 1502 526 1578 q 612 1423 612 1466 l 612 1391 q 536 1315 612 1356 q 517 1310 530 1315 q 340 1418 404 1310 q 286 1461 313 1461 l 281 1461 q 235 1432 235 1454 q 210 1272 229 1381 q 227 1215 213 1253 l 202 1215 q 134 1367 163 1251 l 134 1394 q 227 1527 134 1479 q 259 1532 245 1532 l 267 1532 q 430 1407 330 1532 q 484 1380 465 1380 q 544 1437 509 1380 l 544 1442 q 438 1567 534 1470 l 438 1578 z "},"":{"ha":747,"x_min":18,"x_max":728,"o":"m 381 1160 l 392 1160 q 544 1062 461 1160 q 598 821 598 997 l 598 699 q 625 194 598 338 l 628 194 q 693 297 644 199 l 701 305 l 728 305 l 728 302 q 544 -53 709 203 q 479 -243 484 -173 q 465 -278 473 -278 q 452 -283 456 -283 l 452 -281 q 444 -115 444 -208 l 444 -99 q 487 -15 444 -92 q 528 178 522 131 q 511 517 511 448 l 511 541 q 221 571 288 566 q 151 479 159 571 q 132 210 151 387 q 151 137 151 148 q 88 -129 151 126 q 85 -153 85 -139 q 102 -283 102 -250 l 102 -292 l 99 -292 q 37 -159 37 -247 q 18 69 18 -36 l 18 72 q 45 189 18 90 l 45 357 l 91 764 q 110 812 91 812 q 221 1067 191 1022 q 381 1160 286 1160 m 180 666 l 183 666 l 492 639 l 492 642 q 500 880 492 675 q 419 1029 500 989 q 384 1035 395 1035 l 376 1035 q 283 972 307 1035 q 186 680 186 783 q 180 666 180 680 m 321 886 q 378 837 362 886 q 332 791 371 791 q 316 788 332 788 q 292 810 292 788 l 292 856 q 321 886 296 886 m 538 1379 q 631 1339 589 1379 l 631 1309 q 614 1257 625 1257 q 582 1252 595 1252 l 557 1252 q 481 1314 513 1252 l 481 1328 q 530 1379 481 1357 l 538 1379 m 175 1366 q 267 1320 233 1366 q 270 1301 270 1309 q 186 1252 270 1263 l 164 1252 q 115 1279 115 1264 q 167 1366 115 1353 l 175 1366 z "},"":{"ha":747,"x_min":18,"x_max":728,"o":"m 381 1160 l 392 1160 q 544 1062 461 1160 q 598 821 598 997 l 598 699 q 625 194 598 338 l 628 194 q 693 297 644 199 l 701 305 l 728 305 l 728 302 q 544 -53 709 203 q 479 -243 484 -173 q 465 -278 473 -278 q 452 -283 456 -283 l 452 -281 q 444 -115 444 -208 l 444 -99 q 487 -15 444 -92 q 528 178 522 131 q 511 517 511 448 l 511 541 q 221 571 288 566 q 151 479 159 571 q 132 210 151 387 q 151 137 151 148 q 88 -129 151 126 q 85 -153 85 -139 q 102 -283 102 -250 l 102 -292 l 99 -292 q 37 -159 37 -247 q 18 69 18 -36 l 18 72 q 45 189 18 90 l 45 357 l 91 764 q 110 812 91 812 q 221 1067 191 1022 q 381 1160 286 1160 m 180 666 l 183 666 l 492 639 l 492 642 q 500 880 492 675 q 419 1029 500 989 q 384 1035 395 1035 l 376 1035 q 283 972 307 1035 q 186 680 186 783 q 180 666 180 680 m 321 886 q 378 837 362 886 q 332 791 371 791 q 316 788 332 788 q 292 810 292 788 l 292 856 q 321 886 296 886 m 372 1499 l 377 1499 q 491 1415 448 1499 q 494 1401 494 1410 l 494 1377 q 385 1287 494 1312 l 345 1287 q 252 1379 252 1299 l 252 1404 q 328 1491 252 1456 q 372 1499 346 1499 m 320 1382 q 366 1347 320 1347 q 418 1404 418 1364 l 418 1407 q 382 1436 418 1430 l 380 1436 q 320 1382 320 1423 z "},"":{"ha":1436,"x_min":0,"x_max":0,"o":""},"":{"ha":809,"x_min":57,"x_max":751,"o":"m 345 602 q 399 540 399 589 l 399 531 q 339 463 399 502 l 323 460 l 317 460 q 258 549 288 460 q 345 602 319 602 m 361 -24 q 130 146 237 -5 q 84 324 84 229 q 65 334 65 328 l 65 340 q 57 512 65 366 q 163 873 57 693 q 437 1095 263 1031 q 597 1122 500 1114 q 673 1172 627 1136 l 675 1172 q 616 1088 675 1141 q 583 968 583 1020 l 583 956 q 600 879 583 924 l 570 879 q 521 1021 541 1021 q 307 861 450 1021 q 155 506 155 659 l 155 491 q 222 204 155 415 q 434 96 299 123 l 448 93 q 667 324 572 93 q 694 460 694 405 l 694 494 l 722 494 q 713 401 722 485 q 732 361 732 376 q 705 254 727 331 l 705 198 q 738 53 705 86 q 751 22 751 33 l 732 16 q 662 50 719 16 l 656 50 q 412 -26 486 -21 q 412 -35 412 -31 q 407 -107 412 -54 l 425 -107 q 484 -161 466 -107 q 493 -186 488 -161 l 493 -193 q 430 -306 493 -279 q 410 -308 418 -308 l 408 -308 q 335 -245 356 -308 q 315 -205 329 -231 q 321 -200 315 -203 l 330 -200 q 399 -256 342 -200 q 435 -195 435 -220 l 435 -175 l 425 -175 q 355 -116 355 -175 l 355 -96 q 361 -24 359 -50 z "},"":{"ha":751,"x_min":-5,"x_max":755,"o":"m 20 1162 l 22 1162 q 288 1078 43 1162 l 294 1078 q 755 1116 686 1105 l 755 1114 q 633 975 642 1019 q 587 916 614 932 l 584 916 q 576 1005 576 993 l 576 1019 q 215 1000 290 1000 q 199 962 199 965 q 223 633 223 844 l 223 631 q 315 609 243 631 q 717 604 629 604 q 597 528 661 561 q 570 517 578 517 q 234 536 473 517 q 215 514 218 536 l 215 129 q 380 91 254 91 l 456 91 q 703 186 651 91 q 730 216 726 216 q 736 210 736 215 l 736 194 q 668 53 736 178 q 649 12 652 12 l 611 12 q 342 18 563 12 q 60 -34 189 18 l 33 -34 l 33 -7 q 128 132 128 83 l 128 186 q 120 240 128 216 l 115 237 q 109 243 109 237 l 109 248 q 128 327 109 258 q 109 359 128 336 l 109 370 q 128 408 109 380 q 120 495 123 425 q 139 661 139 600 q 147 699 147 681 q 115 929 115 905 q 82 1059 115 975 l -2 1138 l -5 1152 l -5 1154 q 20 1162 15 1162 m 189 1569 q 349 1411 208 1562 q 471 1221 450 1291 l 468 1221 q 213 1447 398 1221 l 194 1444 l 183 1444 q 189 1566 183 1455 l 189 1569 z "},"":{"ha":751,"x_min":-5,"x_max":755,"o":"m 20 1162 l 22 1162 q 288 1078 43 1162 l 294 1078 q 755 1116 686 1105 l 755 1114 q 633 975 642 1019 q 587 916 614 932 l 584 916 q 576 1005 576 993 l 576 1019 q 215 1000 290 1000 q 199 962 199 965 q 223 633 223 844 l 223 631 q 315 609 243 631 q 717 604 629 604 q 597 528 661 561 q 570 517 578 517 q 234 536 473 517 q 215 514 218 536 l 215 129 q 380 91 254 91 l 456 91 q 703 186 651 91 q 730 216 726 216 q 736 210 736 215 l 736 194 q 668 53 736 178 q 649 12 652 12 l 611 12 q 342 18 563 12 q 60 -34 189 18 l 33 -34 l 33 -7 q 128 132 128 83 l 128 186 q 120 240 128 216 l 115 237 q 109 243 109 237 l 109 248 q 128 327 109 258 q 109 359 128 336 l 109 370 q 128 408 109 380 q 120 495 123 425 q 139 661 139 600 q 147 699 147 681 q 115 929 115 905 q 82 1059 115 975 l -2 1138 l -5 1152 l -5 1154 q 20 1162 15 1162 m 562 1562 l 562 1559 q 567 1437 567 1449 l 556 1437 l 537 1440 q 282 1215 352 1215 l 279 1215 q 401 1404 300 1284 q 562 1562 543 1555 z "},"":{"ha":751,"x_min":-5,"x_max":755,"o":"m 20 1162 l 22 1162 q 288 1078 43 1162 l 294 1078 q 755 1116 686 1105 l 755 1114 q 633 975 642 1019 q 587 916 614 932 l 584 916 q 576 1005 576 993 l 576 1019 q 215 1000 290 1000 q 199 962 199 965 q 223 633 223 844 l 223 631 q 315 609 243 631 q 717 604 629 604 q 597 528 661 561 q 570 517 578 517 q 234 536 473 517 q 215 514 218 536 l 215 129 q 380 91 254 91 l 456 91 q 703 186 651 91 q 730 216 726 216 q 736 210 736 215 l 736 194 q 668 53 736 178 q 649 12 652 12 l 611 12 q 342 18 563 12 q 60 -34 189 18 l 33 -34 l 33 -7 q 128 132 128 83 l 128 186 q 120 240 128 216 l 115 237 q 109 243 109 237 l 109 248 q 128 327 109 258 q 109 359 128 336 l 109 370 q 128 408 109 380 q 120 495 123 425 q 139 661 139 600 q 147 699 147 681 q 115 929 115 905 q 82 1059 115 975 l -2 1138 l -5 1152 l -5 1154 q 20 1162 15 1162 m 427 1781 l 429 1781 l 429 1773 q 424 1699 424 1721 q 562 1415 424 1586 q 616 1222 605 1398 q 589 1211 616 1217 q 446 1455 589 1295 q 405 1515 442 1463 q 299 1333 358 1463 q 212 1257 278 1299 q 144 1160 172 1235 l 144 1154 l 139 1154 q 134 1160 134 1154 l 134 1176 q 182 1317 134 1185 q 199 1401 193 1341 q 340 1602 222 1456 q 427 1781 389 1693 z "},"":{"ha":751,"x_min":-5,"x_max":755,"o":"m 20 1162 l 22 1162 q 288 1078 43 1162 l 294 1078 q 755 1116 686 1105 l 755 1114 q 633 975 642 1019 q 587 916 614 932 l 584 916 q 576 1005 576 993 l 576 1019 q 215 1000 290 1000 q 199 962 199 965 q 223 633 223 844 l 223 631 q 315 609 243 631 q 717 604 629 604 q 597 528 661 561 q 570 517 578 517 q 234 536 473 517 q 215 514 218 536 l 215 129 q 380 91 254 91 l 456 91 q 703 186 651 91 q 730 216 726 216 q 736 210 736 215 l 736 194 q 668 53 736 178 q 649 12 652 12 l 611 12 q 342 18 563 12 q 60 -34 189 18 l 33 -34 l 33 -7 q 128 132 128 83 l 128 186 q 120 240 128 216 l 115 237 q 109 243 109 237 l 109 248 q 128 327 109 258 q 109 359 128 336 l 109 370 q 128 408 109 380 q 120 495 123 425 q 139 661 139 600 q 147 699 147 681 q 115 929 115 905 q 82 1059 115 975 l -2 1138 l -5 1152 l -5 1154 q 20 1162 15 1162 m 541 1379 q 633 1339 591 1379 l 633 1309 q 616 1257 627 1257 q 584 1252 597 1252 l 559 1252 q 484 1314 515 1252 l 484 1328 q 532 1379 484 1357 l 541 1379 m 177 1366 q 269 1320 235 1366 q 272 1301 272 1309 q 188 1252 272 1263 l 166 1252 q 117 1279 117 1264 q 169 1366 117 1353 l 177 1366 z "},"":{"ha":809,"x_min":16,"x_max":792,"o":"m 347 1221 l 377 1221 l 374 1199 l 374 1187 q 469 1139 374 1139 q 675 1101 675 1132 q 708 903 708 951 l 705 903 q 659 991 686 924 q 537 1042 618 1029 l 518 1045 q 423 1032 439 1032 l 423 1029 q 420 868 420 926 q 461 43 420 446 l 526 43 q 770 112 742 56 l 789 118 l 792 118 l 792 112 q 757 -93 792 68 l 754 -93 q 722 -58 726 -58 l 624 -49 q 467 -58 496 -58 l 464 -58 q 439 -87 462 -58 l 442 -118 l 442 -146 l 415 -146 q 326 -71 415 -71 l 301 -71 q 81 -102 229 -71 l 81 -99 q 16 74 81 -71 l 16 115 q 258 20 93 20 l 260 20 q 374 43 308 20 l 374 45 q 336 623 336 207 l 336 787 q 309 1032 336 899 q 190 1045 300 1032 q 119 988 136 1045 l 111 935 q 84 1026 84 954 q 43 1149 84 1088 q 41 1162 43 1156 q 62 1168 51 1168 q 103 1137 71 1168 q 111 1133 106 1137 q 163 1155 119 1133 q 307 1133 182 1155 q 350 1196 350 1133 q 347 1221 347 1213 m 627 728 l 651 728 l 651 718 l 648 701 q 692 655 648 674 q 708 619 708 639 l 708 608 q 648 556 708 569 q 613 665 613 568 l 613 676 q 627 728 615 728 m 218 1569 q 378 1411 237 1562 q 500 1221 479 1291 l 497 1221 q 242 1447 427 1221 l 223 1444 l 212 1444 q 218 1566 212 1455 l 218 1569 z "},"":{"ha":809,"x_min":16,"x_max":792,"o":"m 347 1221 l 377 1221 l 374 1199 l 374 1187 q 469 1139 374 1139 q 675 1101 675 1132 q 708 903 708 951 l 705 903 q 659 991 686 924 q 537 1042 618 1029 l 518 1045 q 423 1032 439 1032 l 423 1029 q 420 868 420 926 q 461 43 420 446 l 526 43 q 770 112 742 56 l 789 118 l 792 118 l 792 112 q 757 -93 792 68 l 754 -93 q 722 -58 726 -58 l 624 -49 q 467 -58 496 -58 l 464 -58 q 439 -87 462 -58 l 442 -118 l 442 -146 l 415 -146 q 326 -71 415 -71 l 301 -71 q 81 -102 229 -71 l 81 -99 q 16 74 81 -71 l 16 115 q 258 20 93 20 l 260 20 q 374 43 308 20 l 374 45 q 336 623 336 207 l 336 787 q 309 1032 336 899 q 190 1045 300 1032 q 119 988 136 1045 l 111 935 q 84 1026 84 954 q 43 1149 84 1088 q 41 1162 43 1156 q 62 1168 51 1168 q 103 1137 71 1168 q 111 1133 106 1137 q 163 1155 119 1133 q 307 1133 182 1155 q 350 1196 350 1133 q 347 1221 347 1213 m 627 728 l 651 728 l 651 718 l 648 701 q 692 655 648 674 q 708 619 708 639 l 708 608 q 648 556 708 569 q 613 665 613 568 l 613 676 q 627 728 615 728 m 591 1562 l 591 1559 q 596 1437 596 1449 l 585 1437 l 566 1440 q 311 1215 381 1215 l 309 1215 q 431 1404 329 1284 q 591 1562 572 1555 z "},"":{"ha":809,"x_min":16,"x_max":792,"o":"m 347 1221 l 377 1221 l 374 1199 l 374 1187 q 469 1139 374 1139 q 675 1101 675 1132 q 708 903 708 951 l 705 903 q 659 991 686 924 q 537 1042 618 1029 l 518 1045 q 423 1032 439 1032 l 423 1029 q 420 868 420 926 q 461 43 420 446 l 526 43 q 770 112 742 56 l 789 118 l 792 118 l 792 112 q 757 -93 792 68 l 754 -93 q 722 -58 726 -58 l 624 -49 q 467 -58 496 -58 l 464 -58 q 439 -87 462 -58 l 442 -118 l 442 -146 l 415 -146 q 326 -71 415 -71 l 301 -71 q 81 -102 229 -71 l 81 -99 q 16 74 81 -71 l 16 115 q 258 20 93 20 l 260 20 q 374 43 308 20 l 374 45 q 336 623 336 207 l 336 787 q 309 1032 336 899 q 190 1045 300 1032 q 119 988 136 1045 l 111 935 q 84 1026 84 954 q 43 1149 84 1088 q 41 1162 43 1156 q 62 1168 51 1168 q 103 1137 71 1168 q 111 1133 106 1137 q 163 1155 119 1133 q 307 1133 182 1155 q 350 1196 350 1133 q 347 1221 347 1213 m 627 728 l 651 728 l 651 718 l 648 701 q 692 655 648 674 q 708 619 708 639 l 708 608 q 648 556 708 569 q 613 665 613 568 l 613 676 q 627 728 615 728 m 456 1788 l 458 1788 l 458 1780 q 453 1706 453 1727 q 591 1421 453 1593 q 646 1229 634 1404 q 618 1218 646 1224 q 475 1462 618 1301 q 434 1522 471 1470 q 328 1340 387 1470 q 241 1264 307 1306 q 174 1166 201 1242 l 174 1161 l 168 1161 q 163 1166 163 1161 l 163 1183 q 212 1324 163 1192 q 228 1408 222 1348 q 369 1609 252 1463 q 456 1788 418 1699 z "},"":{"ha":809,"x_min":16,"x_max":792,"o":"m 347 1221 l 377 1221 l 374 1199 l 374 1187 q 469 1139 374 1139 q 675 1101 675 1132 q 708 903 708 951 l 705 903 q 659 991 686 924 q 537 1042 618 1029 l 518 1045 q 423 1032 439 1032 l 423 1029 q 420 868 420 926 q 461 43 420 446 l 526 43 q 770 112 742 56 l 789 118 l 792 118 l 792 112 q 757 -93 792 68 l 754 -93 q 722 -58 726 -58 l 624 -49 q 467 -58 496 -58 l 464 -58 q 439 -87 462 -58 l 442 -118 l 442 -146 l 415 -146 q 326 -71 415 -71 l 301 -71 q 81 -102 229 -71 l 81 -99 q 16 74 81 -71 l 16 115 q 258 20 93 20 l 260 20 q 374 43 308 20 l 374 45 q 336 623 336 207 l 336 787 q 309 1032 336 899 q 190 1045 300 1032 q 119 988 136 1045 l 111 935 q 84 1026 84 954 q 43 1149 84 1088 q 41 1162 43 1156 q 62 1168 51 1168 q 103 1137 71 1168 q 111 1133 106 1137 q 163 1155 119 1133 q 307 1133 182 1155 q 350 1196 350 1133 q 347 1221 347 1213 m 627 728 l 651 728 l 651 718 l 648 701 q 692 655 648 674 q 708 619 708 639 l 708 608 q 648 556 708 569 q 613 665 613 568 l 613 676 q 627 728 615 728 m 570 1379 q 662 1339 620 1379 l 662 1309 q 646 1257 656 1257 q 613 1252 627 1252 l 589 1252 q 513 1314 544 1252 l 513 1328 q 562 1379 513 1357 l 570 1379 m 206 1366 q 298 1320 264 1366 q 301 1301 301 1309 q 217 1252 301 1263 l 195 1252 q 146 1279 146 1264 q 198 1366 146 1353 l 206 1366 z "},"":{"ha":1029,"x_min":0,"x_max":0,"o":""},"":{"ha":824,"x_min":3,"x_max":820,"o":"m 3 1236 q 191 1103 62 1187 q 408 864 347 955 q 565 688 504 751 q 695 582 640 618 l 695 585 q 687 994 687 852 q 603 1165 687 1033 l 603 1195 q 747 1057 669 1143 q 814 1133 793 1114 q 820 1127 820 1132 l 820 1111 q 816 994 820 1098 q 812 859 812 890 l 812 837 q 801 465 812 687 q 782 243 801 414 l 782 -20 q 715 -279 782 -31 l 668 -20 l 663 -4 q 687 335 667 -4 q 435 658 687 496 q 277 785 349 712 q 261 750 261 760 l 280 -31 q 258 -216 258 -71 l 258 -243 q 269 -327 258 -267 q 245 -332 252 -332 l 239 -332 l 239 -330 q 210 -118 229 -153 q 131 -42 188 -42 q 109 -28 109 -32 q 177 237 177 35 q 182 286 182 237 l 166 601 l 182 810 q 120 1065 182 875 q 9 1222 119 1080 q 3 1233 9 1226 l 3 1236 m 477 1578 l 479 1578 q 626 1502 565 1578 q 650 1423 650 1466 l 650 1391 q 574 1315 650 1356 q 555 1310 569 1315 q 379 1418 443 1310 q 325 1461 351 1461 l 319 1461 q 273 1432 273 1454 q 249 1272 268 1381 q 265 1215 252 1253 l 241 1215 q 173 1367 202 1251 l 173 1394 q 265 1527 173 1479 q 298 1532 284 1532 l 306 1532 q 469 1407 369 1532 q 523 1380 503 1380 q 583 1437 547 1380 l 583 1442 q 477 1567 573 1470 l 477 1578 z "},"":{"ha":952,"x_min":7,"x_max":945,"o":"m 492 1158 q 796 903 669 1158 q 837 627 837 813 q 842 505 837 614 q 924 616 887 552 q 945 605 944 612 q 837 345 890 517 q 688 46 763 91 q 555 0 629 0 l 506 0 q 205 174 357 0 q 102 442 102 328 l 83 518 q 18 415 18 429 q 7 453 9 415 l 7 491 q 28 646 16 646 q 99 757 49 682 q 175 974 120 801 q 267 1090 228 1090 q 492 1158 398 1158 m 235 865 l 235 857 l 248 865 q 254 860 254 865 l 254 857 q 221 800 254 851 q 194 651 194 745 q 186 640 191 651 q 370 136 186 248 q 498 103 437 103 q 609 133 543 103 q 704 285 704 187 l 704 355 q 736 456 704 413 l 736 722 q 718 776 736 730 q 620 1009 718 916 q 500 1053 563 1053 q 273 958 363 1053 q 240 879 251 930 q 235 865 235 879 m 427 608 q 481 572 481 602 l 481 567 q 449 524 481 538 q 425 521 434 521 l 414 521 q 376 556 376 530 l 376 564 q 427 608 376 599 m 290 1569 q 450 1411 309 1562 q 572 1221 551 1291 l 569 1221 q 314 1447 499 1221 l 295 1444 l 284 1444 q 290 1566 284 1455 l 290 1569 z "},"":{"ha":952,"x_min":7,"x_max":945,"o":"m 492 1158 q 796 903 669 1158 q 837 627 837 813 q 842 505 837 614 q 924 616 887 552 q 945 605 944 612 q 837 345 890 517 q 688 46 763 91 q 555 0 629 0 l 506 0 q 205 174 357 0 q 102 442 102 328 l 83 518 q 18 415 18 429 q 7 453 9 415 l 7 491 q 28 646 16 646 q 99 757 49 682 q 175 974 120 801 q 267 1090 228 1090 q 492 1158 398 1158 m 235 865 l 235 857 l 248 865 q 254 860 254 865 l 254 857 q 221 800 254 851 q 194 651 194 745 q 186 640 191 651 q 370 136 186 248 q 498 103 437 103 q 609 133 543 103 q 704 285 704 187 l 704 355 q 736 456 704 413 l 736 722 q 718 776 736 730 q 620 1009 718 916 q 500 1053 563 1053 q 273 958 363 1053 q 240 879 251 930 q 235 865 235 879 m 427 608 q 481 572 481 602 l 481 567 q 449 524 481 538 q 425 521 434 521 l 414 521 q 376 556 376 530 l 376 564 q 427 608 376 599 m 663 1562 l 663 1559 q 668 1437 668 1449 l 657 1437 l 638 1440 q 383 1215 453 1215 l 380 1215 q 503 1404 401 1284 q 663 1562 644 1555 z "},"":{"ha":952,"x_min":7,"x_max":945,"o":"m 492 1158 q 796 903 669 1158 q 837 627 837 813 q 842 505 837 614 q 924 616 887 552 q 945 605 944 612 q 837 345 890 517 q 688 46 763 91 q 555 0 629 0 l 506 0 q 205 174 357 0 q 102 442 102 328 l 83 518 q 18 415 18 429 q 7 453 9 415 l 7 491 q 28 646 16 646 q 99 757 49 682 q 175 974 120 801 q 267 1090 228 1090 q 492 1158 398 1158 m 235 865 l 235 857 l 248 865 q 254 860 254 865 l 254 857 q 221 800 254 851 q 194 651 194 745 q 186 640 191 651 q 370 136 186 248 q 498 103 437 103 q 609 133 543 103 q 704 285 704 187 l 704 355 q 736 456 704 413 l 736 722 q 718 776 736 730 q 620 1009 718 916 q 500 1053 563 1053 q 273 958 363 1053 q 240 879 251 930 q 235 865 235 879 m 427 608 q 481 572 481 602 l 481 567 q 449 524 481 538 q 425 521 434 521 l 414 521 q 376 556 376 530 l 376 564 q 427 608 376 599 m 528 1781 l 530 1781 l 530 1773 q 525 1699 525 1721 q 663 1415 525 1586 q 718 1222 706 1398 q 690 1211 718 1217 q 547 1455 690 1295 q 506 1515 543 1463 q 400 1333 459 1463 q 313 1257 379 1299 q 245 1160 273 1235 l 245 1154 l 240 1154 q 235 1160 235 1154 l 235 1176 q 283 1317 235 1185 q 300 1401 294 1341 q 441 1602 323 1456 q 528 1781 490 1693 z "},"":{"ha":952,"x_min":7,"x_max":945,"o":"m 492 1158 q 796 903 669 1158 q 837 627 837 813 q 842 505 837 614 q 924 616 887 552 q 945 605 944 612 q 837 345 890 517 q 688 46 763 91 q 555 0 629 0 l 506 0 q 205 174 357 0 q 102 442 102 328 l 83 518 q 18 415 18 429 q 7 453 9 415 l 7 491 q 28 646 16 646 q 99 757 49 682 q 175 974 120 801 q 267 1090 228 1090 q 492 1158 398 1158 m 235 865 l 235 857 l 248 865 q 254 860 254 865 l 254 857 q 221 800 254 851 q 194 651 194 745 q 186 640 191 651 q 370 136 186 248 q 498 103 437 103 q 609 133 543 103 q 704 285 704 187 l 704 355 q 736 456 704 413 l 736 722 q 718 776 736 730 q 620 1009 718 916 q 500 1053 563 1053 q 273 958 363 1053 q 240 879 251 930 q 235 865 235 879 m 427 608 q 481 572 481 602 l 481 567 q 449 524 481 538 q 425 521 434 521 l 414 521 q 376 556 376 530 l 376 564 q 427 608 376 599 m 541 1578 l 544 1578 q 690 1502 629 1578 q 715 1423 715 1466 l 715 1391 q 639 1315 715 1356 q 620 1310 633 1315 q 444 1418 507 1310 q 389 1461 416 1461 l 384 1461 q 338 1432 338 1454 q 313 1272 332 1381 q 330 1215 316 1253 l 305 1215 q 237 1367 267 1251 l 237 1394 q 330 1527 237 1479 q 362 1532 349 1532 l 370 1532 q 533 1407 433 1532 q 587 1380 568 1380 q 647 1437 612 1380 l 647 1442 q 541 1567 637 1470 l 541 1578 z "},"":{"ha":952,"x_min":7,"x_max":945,"o":"m 492 1158 q 796 903 669 1158 q 837 627 837 813 q 842 505 837 614 q 924 616 887 552 q 945 605 944 612 q 837 345 890 517 q 688 46 763 91 q 555 0 629 0 l 506 0 q 205 174 357 0 q 102 442 102 328 l 83 518 q 18 415 18 429 q 7 453 9 415 l 7 491 q 28 646 16 646 q 99 757 49 682 q 175 974 120 801 q 267 1090 228 1090 q 492 1158 398 1158 m 235 865 l 235 857 l 248 865 q 254 860 254 865 l 254 857 q 221 800 254 851 q 194 651 194 745 q 186 640 191 651 q 370 136 186 248 q 498 103 437 103 q 609 133 543 103 q 704 285 704 187 l 704 355 q 736 456 704 413 l 736 722 q 718 776 736 730 q 620 1009 718 916 q 500 1053 563 1053 q 273 958 363 1053 q 240 879 251 930 q 235 865 235 879 m 427 608 q 481 572 481 602 l 481 567 q 449 524 481 538 q 425 521 434 521 l 414 521 q 376 556 376 530 l 376 564 q 427 608 376 599 m 642 1379 q 734 1339 692 1379 l 734 1309 q 718 1257 728 1257 q 685 1252 699 1252 l 661 1252 q 585 1314 616 1252 l 585 1328 q 633 1379 585 1357 l 642 1379 m 278 1366 q 370 1320 336 1366 q 373 1301 373 1309 q 289 1252 373 1263 l 267 1252 q 218 1279 218 1264 q 270 1366 218 1353 l 278 1366 z "},"":{"ha":688,"x_min":0,"x_max":0,"o":""},"":{"ha":1095,"x_min":0,"x_max":0,"o":""},"":{"ha":812,"x_min":28,"x_max":785,"o":"m 188 1161 l 188 1069 q 245 771 188 1046 q 299 176 264 302 q 443 20 349 20 l 451 20 q 646 273 612 20 q 652 353 652 307 l 652 377 q 619 819 627 819 l 597 889 l 597 901 q 660 1055 597 911 q 663 1067 663 1059 l 663 1104 q 671 1152 663 1131 l 673 1152 q 730 937 692 1088 q 785 922 783 922 l 785 913 q 725 825 725 871 q 722 795 722 814 l 722 783 q 749 410 722 729 l 741 245 l 749 212 q 644 8 749 114 q 489 -62 560 -62 l 448 -62 q 267 54 350 -62 q 201 195 234 98 q 163 414 163 332 l 163 613 q 79 889 163 812 q 28 930 79 892 q 55 946 28 945 q 87 932 62 946 q 101 930 92 930 l 106 930 q 158 1005 140 947 q 161 1022 161 1008 l 161 1034 q 163 1088 161 1056 q 155 1135 155 1120 l 155 1137 q 188 1161 155 1156 m 220 1569 q 380 1411 239 1562 q 502 1221 481 1291 l 499 1221 q 244 1447 429 1221 l 225 1444 l 214 1444 q 220 1566 214 1455 l 220 1569 z "},"":{"ha":812,"x_min":28,"x_max":785,"o":"m 188 1161 l 188 1069 q 245 771 188 1046 q 299 176 264 302 q 443 20 349 20 l 451 20 q 646 273 612 20 q 652 353 652 307 l 652 377 q 619 819 627 819 l 597 889 l 597 901 q 660 1055 597 911 q 663 1067 663 1059 l 663 1104 q 671 1152 663 1131 l 673 1152 q 730 937 692 1088 q 785 922 783 922 l 785 913 q 725 825 725 871 q 722 795 722 814 l 722 783 q 749 410 722 729 l 741 245 l 749 212 q 644 8 749 114 q 489 -62 560 -62 l 448 -62 q 267 54 350 -62 q 201 195 234 98 q 163 414 163 332 l 163 613 q 79 889 163 812 q 28 930 79 892 q 55 946 28 945 q 87 932 62 946 q 101 930 92 930 l 106 930 q 158 1005 140 947 q 161 1022 161 1008 l 161 1034 q 163 1088 161 1056 q 155 1135 155 1120 l 155 1137 q 188 1161 155 1156 m 593 1562 l 593 1559 q 598 1437 598 1449 l 587 1437 l 568 1440 q 313 1215 383 1215 l 311 1215 q 433 1404 331 1284 q 593 1562 574 1555 z "},"":{"ha":812,"x_min":28,"x_max":785,"o":"m 188 1161 l 188 1069 q 245 771 188 1046 q 299 176 264 302 q 443 20 349 20 l 451 20 q 646 273 612 20 q 652 353 652 307 l 652 377 q 619 819 627 819 l 597 889 l 597 901 q 660 1055 597 911 q 663 1067 663 1059 l 663 1104 q 671 1152 663 1131 l 673 1152 q 730 937 692 1088 q 785 922 783 922 l 785 913 q 725 825 725 871 q 722 795 722 814 l 722 783 q 749 410 722 729 l 741 245 l 749 212 q 644 8 749 114 q 489 -62 560 -62 l 448 -62 q 267 54 350 -62 q 201 195 234 98 q 163 414 163 332 l 163 613 q 79 889 163 812 q 28 930 79 892 q 55 946 28 945 q 87 932 62 946 q 101 930 92 930 l 106 930 q 158 1005 140 947 q 161 1022 161 1008 l 161 1034 q 163 1088 161 1056 q 155 1135 155 1120 l 155 1137 q 188 1161 155 1156 m 458 1788 l 460 1788 l 460 1780 q 455 1706 455 1727 q 593 1421 455 1593 q 648 1229 636 1404 q 621 1218 648 1224 q 477 1462 621 1301 q 436 1522 473 1470 q 330 1340 389 1470 q 243 1264 309 1306 q 176 1166 203 1242 l 176 1161 l 170 1161 q 165 1166 165 1161 l 165 1183 q 214 1324 165 1192 q 230 1408 224 1348 q 371 1609 254 1463 q 458 1788 420 1699 z "},"":{"ha":812,"x_min":28,"x_max":785,"o":"m 188 1161 l 188 1069 q 245 771 188 1046 q 299 176 264 302 q 443 20 349 20 l 451 20 q 646 273 612 20 q 652 353 652 307 l 652 377 q 619 819 627 819 l 597 889 l 597 901 q 660 1055 597 911 q 663 1067 663 1059 l 663 1104 q 671 1152 663 1131 l 673 1152 q 730 937 692 1088 q 785 922 783 922 l 785 913 q 725 825 725 871 q 722 795 722 814 l 722 783 q 749 410 722 729 l 741 245 l 749 212 q 644 8 749 114 q 489 -62 560 -62 l 448 -62 q 267 54 350 -62 q 201 195 234 98 q 163 414 163 332 l 163 613 q 79 889 163 812 q 28 930 79 892 q 55 946 28 945 q 87 932 62 946 q 101 930 92 930 l 106 930 q 158 1005 140 947 q 161 1022 161 1008 l 161 1034 q 163 1088 161 1056 q 155 1135 155 1120 l 155 1137 q 188 1161 155 1156 m 572 1379 q 664 1339 622 1379 l 664 1309 q 648 1257 659 1257 q 615 1252 629 1252 l 591 1252 q 515 1314 546 1252 l 515 1328 q 564 1379 515 1357 l 572 1379 m 208 1366 q 300 1320 267 1366 q 303 1301 303 1309 q 219 1252 303 1263 l 197 1252 q 149 1279 149 1264 q 200 1366 149 1353 l 208 1366 z "},"":{"ha":589,"x_min":0,"x_max":0,"o":""},"":{"ha":685,"x_min":0,"x_max":0,"o":""},"":{"ha":589,"x_min":0,"x_max":0,"o":""},"":{"ha":349,"x_min":0,"x_max":0,"o":""},"":{"ha":677,"x_min":97,"x_max":580,"o":"m 390 1503 l 393 1503 l 393 1495 q 387 1421 387 1442 q 526 1137 387 1308 q 580 944 568 1120 q 553 933 580 939 q 409 1177 553 1017 q 368 1237 406 1185 q 262 1055 321 1185 q 176 979 241 1021 q 108 882 136 957 l 108 876 l 102 876 q 97 882 97 876 l 97 898 q 146 1039 97 907 q 162 1123 156 1063 q 303 1324 186 1178 q 390 1503 352 1415 z "},"":{"ha":694,"x_min":0,"x_max":0,"o":""},"":{"ha":694,"x_min":0,"x_max":0,"o":""},"":{"ha":694,"x_min":0,"x_max":0,"o":""},"":{"ha":694,"x_min":0,"x_max":0,"o":""},"":{"ha":409,"x_min":83,"x_max":325,"o":"m 203 1221 l 208 1221 q 322 1137 279 1221 q 325 1123 325 1132 l 325 1099 q 216 1009 325 1034 l 176 1009 q 83 1101 83 1021 l 83 1126 q 159 1213 83 1178 q 203 1221 177 1221 m 151 1104 q 197 1069 151 1069 q 249 1126 249 1086 l 249 1128 q 214 1158 249 1152 l 211 1158 q 151 1104 151 1145 z "},"":{"ha":694,"x_min":0,"x_max":0,"o":""},"":{"ha":536,"x_min":29,"x_max":507,"o":"m 333 1300 l 336 1300 q 482 1224 421 1300 q 507 1145 507 1187 l 507 1113 q 431 1037 507 1078 q 412 1031 425 1037 q 235 1140 299 1031 q 181 1183 208 1183 l 176 1183 q 130 1154 130 1176 q 105 994 124 1103 q 121 937 108 975 l 97 937 q 29 1088 58 973 l 29 1116 q 121 1249 29 1201 q 154 1254 140 1254 l 162 1254 q 325 1129 225 1254 q 379 1102 359 1102 q 439 1159 404 1102 l 439 1164 q 333 1289 429 1192 l 333 1300 z "},"":{"ha":694,"x_min":0,"x_max":0,"o":""},"":{"ha":751,"x_min":0,"x_max":0,"o":""},"":{"ha":1389,"x_min":0,"x_max":0,"o":""},"":{"ha":378,"x_min":0,"x_max":0,"o":""},"":{"ha":378,"x_min":0,"x_max":0,"o":""},"":{"ha":378,"x_min":0,"x_max":0,"o":""},"":{"ha":547,"x_min":62,"x_max":484,"o":"m 252 1305 l 254 1305 l 254 1299 q 224 1245 254 1289 q 219 1213 219 1226 l 227 1156 q 195 914 195 961 l 195 901 q 205 825 195 863 q 97 735 149 809 q 81 711 90 717 l 75 713 l 62 711 l 62 713 q 127 1191 86 868 q 203 1278 181 1260 q 252 1305 209 1278 m 481 1313 l 484 1313 l 484 1308 q 454 1253 484 1297 q 449 1221 449 1234 l 457 1164 q 425 922 425 969 l 425 909 q 435 833 425 871 q 327 743 379 817 q 311 719 319 725 l 305 722 l 292 719 l 292 722 q 357 1199 316 876 q 433 1286 411 1268 q 481 1313 439 1286 z "},"":{"ha":547,"x_min":62,"x_max":484,"o":"m 294 1305 q 343 1278 337 1278 q 419 1191 365 1260 q 484 713 460 868 l 484 711 l 471 713 l 465 711 q 449 735 456 717 q 340 825 397 809 q 351 901 351 863 l 351 914 q 319 1156 351 961 l 327 1213 q 321 1245 327 1226 q 292 1299 292 1289 l 292 1305 l 294 1305 m 64 1313 q 113 1286 107 1286 q 189 1199 135 1268 q 254 722 230 876 l 254 719 l 241 722 l 235 719 q 219 743 227 725 q 111 833 167 817 q 121 909 121 871 l 121 922 q 89 1164 121 969 l 97 1221 q 92 1253 97 1234 q 62 1308 62 1297 l 62 1313 l 64 1313 z "},"":{"ha":617,"x_min":0,"x_max":0,"o":""},"":{"ha":688,"x_min":0,"x_max":0,"o":""},"":{"ha":688,"x_min":0,"x_max":0,"o":""},"":{"ha":694,"x_min":0,"x_max":0,"o":""},"":{"ha":1389,"x_min":0,"x_max":0,"o":""},"":{"ha":428,"x_min":0,"x_max":0,"o":""},"":{"ha":428,"x_min":0,"x_max":0,"o":""},"":{"ha":232,"x_min":0,"x_max":0,"o":""},"":{"ha":688,"x_min":0,"x_max":0,"o":""},"":{"ha":688,"x_min":0,"x_max":0,"o":""},"":{"ha":1375,"x_min":0,"x_max":0,"o":""},"":{"ha":688,"x_min":-102,"x_max":790,"o":"m 576 1093 q 690 1055 667 1093 q 736 920 701 1032 l 722 903 q 606 993 684 928 q 551 1006 572 1006 q 307 830 448 1006 q 234 608 274 784 q 299 591 264 591 l 345 591 q 519 643 392 591 l 535 646 l 535 643 q 492 537 492 566 q 494 513 494 526 q 470 505 477 505 l 454 505 l 245 521 q 231 507 237 521 q 272 410 231 456 q 497 382 419 382 q 551 239 551 270 q 421 309 447 309 q 299 296 342 302 q 402 157 338 212 l 429 141 q 470 122 470 133 q 546 98 519 98 l 606 98 q 739 187 666 98 q 787 282 747 191 l 790 282 l 790 125 q 597 8 790 66 q 538 0 564 0 q 288 130 422 0 q 212 282 214 219 l 212 304 q -26 326 102 317 l -29 342 l -29 345 q -26 439 -29 376 l -18 439 q 33 448 18 448 l 166 410 q 174 429 174 420 q 136 532 172 470 q 106 529 130 532 q -81 616 18 529 q -100 654 -86 616 l -102 654 q -94 665 -98 665 l -78 665 q 66 616 -54 665 q 112 605 79 610 q 163 665 157 605 q 261 933 163 817 q 427 1069 368 1069 q 554 1093 457 1069 l 576 1093 z "},"":{"ha":1540,"x_min":0,"x_max":0,"o":""},"":{"ha":1015,"x_min":0,"x_max":0,"o":""},"":{"ha":688,"x_min":0,"x_max":0,"o":""},"":{"ha":733,"x_min":0,"x_max":0,"o":""},"":{"ha":1027,"x_min":0,"x_max":0,"o":""},"":{"ha":818,"x_min":0,"x_max":0,"o":""},"":{"ha":688,"x_min":0,"x_max":0,"o":""},"":{"ha":688,"x_min":0,"x_max":0,"o":""},"":{"ha":688,"x_min":0,"x_max":0,"o":""},"":{"ha":451,"x_min":0,"x_max":0,"o":""},"":{"ha":688,"x_min":0,"x_max":0,"o":""},"":{"ha":688,"x_min":0,"x_max":0,"o":""},"":{"ha":688,"x_min":0,"x_max":0,"o":""},"":{"ha":728,"x_min":0,"x_max":0,"o":""},"":{"ha":733,"x_min":0,"x_max":0,"o":""}}}
